<svg width="41" height="39" viewBox="0 0 41 39" fill="none" xmlns="http://www.w3.org/2000/svg">
<path d="M30.9325 21.7205V16.6855C30.9301 14.4421 30.092 12.2719 28.5668 10.5592C27.0416 8.84651 24.9276 7.70186 22.5991 7.32797V5.60213C22.5991 5.18221 22.4235 4.77948 22.111 4.48255C21.7984 4.18561 21.3745 4.0188 20.9325 4.0188C20.4904 4.0188 20.0665 4.18561 19.7539 4.48255C19.4414 4.77948 19.2658 5.18221 19.2658 5.60213V7.32797C16.9374 7.70186 14.8233 8.84651 13.2981 10.5592C11.7729 12.2719 10.9348 14.4421 10.9325 16.6855V21.7205C9.95987 22.0471 9.11745 22.6516 8.52069 23.4509C7.92392 24.2503 7.60202 25.2055 7.59912 26.1855V29.3521C7.59912 29.7721 7.77472 30.1748 8.08728 30.4717C8.39984 30.7687 8.82376 30.9355 9.26579 30.9355H14.4991C14.8829 32.2771 15.7208 33.4615 16.8834 34.306C18.0461 35.1504 19.4689 35.6079 20.9325 35.6079C22.396 35.6079 23.8188 35.1504 24.9815 34.306C26.1441 33.4615 26.982 32.2771 27.3658 30.9355H32.5991C33.0411 30.9355 33.4651 30.7687 33.7776 30.4717C34.0902 30.1748 34.2658 29.7721 34.2658 29.3521V26.1855C34.2629 25.2055 33.941 24.2503 33.3442 23.4509C32.7475 22.6516 31.905 22.0471 30.9325 21.7205ZM14.2658 16.6855C14.2658 15.0058 14.9682 13.3949 16.2184 12.2071C17.4687 11.0194 19.1643 10.3521 20.9325 10.3521C22.7006 10.3521 24.3963 11.0194 25.6465 12.2071C26.8967 13.3949 27.5991 15.0058 27.5991 16.6855V21.4355H14.2658V16.6855ZM20.9325 32.5188C20.3507 32.5155 19.7801 32.3676 19.2772 32.0898C18.7743 31.812 18.3566 31.4141 18.0658 30.9355H23.7991C23.5083 31.4141 23.0906 31.812 22.5877 32.0898C22.0848 32.3676 21.5142 32.5155 20.9325 32.5188ZM30.9325 27.7688H10.9325V26.1855C10.9325 25.7655 11.108 25.3628 11.4206 25.0659C11.7332 24.7689 12.1571 24.6021 12.5991 24.6021H29.2658C29.7078 24.6021 30.1317 24.7689 30.4443 25.0659C30.7569 25.3628 30.9325 25.7655 30.9325 26.1855V27.7688Z" fill="white"/>
</svg>
