<svg width="20" height="21" viewBox="0 0 20 21" fill="none" xmlns="http://www.w3.org/2000/svg">
<g clip-path="url(#clip0_69_880)">
<path d="M9.99984 15.8843C10.1647 15.8843 10.3258 15.8354 10.4628 15.7438C10.5999 15.6523 10.7067 15.5221 10.7697 15.3698C10.8328 15.2176 10.8493 15.05 10.8172 14.8884C10.785 14.7267 10.7056 14.5782 10.5891 14.4617C10.4725 14.3451 10.3241 14.2658 10.1624 14.2336C10.0008 14.2015 9.83321 14.218 9.68093 14.281C9.52866 14.3441 9.39851 14.4509 9.30695 14.588C9.21538 14.725 9.1665 14.8861 9.1665 15.0509C9.1665 15.272 9.2543 15.4839 9.41058 15.6402C9.56686 15.7965 9.77882 15.8843 9.99984 15.8843ZM14.1665 15.8843C14.3313 15.8843 14.4924 15.8354 14.6295 15.7438C14.7665 15.6523 14.8733 15.5221 14.9364 15.3698C14.9995 15.2176 15.016 15.05 14.9838 14.8884C14.9517 14.7267 14.8723 14.5782 14.7558 14.4617C14.6392 14.3451 14.4907 14.2658 14.3291 14.2336C14.1674 14.2015 13.9999 14.218 13.8476 14.281C13.6953 14.3441 13.5652 14.4509 13.4736 14.588C13.382 14.725 13.3332 14.8861 13.3332 15.0509C13.3332 15.272 13.421 15.4839 13.5772 15.6402C13.7335 15.7965 13.9455 15.8843 14.1665 15.8843ZM14.1665 12.5509C14.3313 12.5509 14.4924 12.5021 14.6295 12.4105C14.7665 12.3189 14.8733 12.1888 14.9364 12.0365C14.9995 11.8842 15.016 11.7167 14.9838 11.555C14.9517 11.3934 14.8723 11.2449 14.7558 11.1284C14.6392 11.0118 14.4907 10.9324 14.3291 10.9003C14.1674 10.8681 13.9999 10.8846 13.8476 10.9477C13.6953 11.0108 13.5652 11.1176 13.4736 11.2546C13.382 11.3917 13.3332 11.5528 13.3332 11.7176C13.3332 11.9386 13.421 12.1506 13.5772 12.3069C13.7335 12.4631 13.9455 12.5509 14.1665 12.5509ZM9.99984 12.5509C10.1647 12.5509 10.3258 12.5021 10.4628 12.4105C10.5999 12.3189 10.7067 12.1888 10.7697 12.0365C10.8328 11.8842 10.8493 11.7167 10.8172 11.555C10.785 11.3934 10.7056 11.2449 10.5891 11.1284C10.4725 11.0118 10.3241 10.9324 10.1624 10.9003C10.0008 10.8681 9.83321 10.8846 9.68093 10.9477C9.52866 11.0108 9.39851 11.1176 9.30695 11.2546C9.21538 11.3917 9.1665 11.5528 9.1665 11.7176C9.1665 11.9386 9.2543 12.1506 9.41058 12.3069C9.56686 12.4631 9.77882 12.5509 9.99984 12.5509ZM15.8332 2.55094H14.9998V1.71761C14.9998 1.4966 14.912 1.28464 14.7558 1.12835C14.5995 0.972075 14.3875 0.884277 14.1665 0.884277C13.9455 0.884277 13.7335 0.972075 13.5772 1.12835C13.421 1.28464 13.3332 1.4966 13.3332 1.71761V2.55094H6.6665V1.71761C6.6665 1.4966 6.57871 1.28464 6.42243 1.12835C6.26615 0.972075 6.05418 0.884277 5.83317 0.884277C5.61216 0.884277 5.4002 0.972075 5.24392 1.12835C5.08763 1.28464 4.99984 1.4966 4.99984 1.71761V2.55094H4.1665C3.50346 2.55094 2.86758 2.81434 2.39874 3.28318C1.9299 3.75202 1.6665 4.3879 1.6665 5.05094V16.7176C1.6665 17.3807 1.9299 18.0165 2.39874 18.4854C2.86758 18.9542 3.50346 19.2176 4.1665 19.2176H15.8332C16.4962 19.2176 17.1321 18.9542 17.6009 18.4854C18.0698 18.0165 18.3332 17.3807 18.3332 16.7176V5.05094C18.3332 4.3879 18.0698 3.75202 17.6009 3.28318C17.1321 2.81434 16.4962 2.55094 15.8332 2.55094ZM16.6665 16.7176C16.6665 16.9386 16.5787 17.1506 16.4224 17.3069C16.2661 17.4631 16.0542 17.5509 15.8332 17.5509H4.1665C3.94549 17.5509 3.73353 17.4631 3.57725 17.3069C3.42097 17.1506 3.33317 16.9386 3.33317 16.7176V9.21761H16.6665V16.7176ZM16.6665 7.55094H3.33317V5.05094C3.33317 4.82993 3.42097 4.61797 3.57725 4.46169C3.73353 4.30541 3.94549 4.21761 4.1665 4.21761H4.99984V5.05094C4.99984 5.27196 5.08763 5.48392 5.24392 5.6402C5.4002 5.79648 5.61216 5.88428 5.83317 5.88428C6.05418 5.88428 6.26615 5.79648 6.42243 5.6402C6.57871 5.48392 6.6665 5.27196 6.6665 5.05094V4.21761H13.3332V5.05094C13.3332 5.27196 13.421 5.48392 13.5772 5.6402C13.7335 5.79648 13.9455 5.88428 14.1665 5.88428C14.3875 5.88428 14.5995 5.79648 14.7558 5.6402C14.912 5.48392 14.9998 5.27196 14.9998 5.05094V4.21761H15.8332C16.0542 4.21761 16.2661 4.30541 16.4224 4.46169C16.5787 4.61797 16.6665 4.82993 16.6665 5.05094V7.55094ZM5.83317 12.5509C5.99799 12.5509 6.1591 12.5021 6.29615 12.4105C6.43319 12.3189 6.54 12.1888 6.60307 12.0365C6.66614 11.8842 6.68265 11.7167 6.65049 11.555C6.61834 11.3934 6.53897 11.2449 6.42243 11.1284C6.30588 11.0118 6.1574 10.9324 5.99575 10.9003C5.8341 10.8681 5.66654 10.8846 5.51427 10.9477C5.362 11.0108 5.23185 11.1176 5.14028 11.2546C5.04871 11.3917 4.99984 11.5528 4.99984 11.7176C4.99984 11.9386 5.08763 12.1506 5.24392 12.3069C5.4002 12.4631 5.61216 12.5509 5.83317 12.5509ZM5.83317 15.8843C5.99799 15.8843 6.1591 15.8354 6.29615 15.7438C6.43319 15.6523 6.54 15.5221 6.60307 15.3698C6.66614 15.2176 6.68265 15.05 6.65049 14.8884C6.61834 14.7267 6.53897 14.5782 6.42243 14.4617C6.30588 14.3451 6.1574 14.2658 5.99575 14.2336C5.8341 14.2015 5.66654 14.218 5.51427 14.281C5.362 14.3441 5.23185 14.4509 5.14028 14.588C5.04871 14.725 4.99984 14.8861 4.99984 15.0509C4.99984 15.272 5.08763 15.4839 5.24392 15.6402C5.4002 15.7965 5.61216 15.8843 5.83317 15.8843Z" fill="white"/>
</g>
<defs>
<clipPath id="clip0_69_880">
<rect width="20" height="20" fill="white" transform="translate(0 0.0507812)"/>
</clipPath>
</defs>
</svg>
