<svg width="138" height="147" viewBox="0 0 138 147" fill="none" xmlns="http://www.w3.org/2000/svg">
<g clip-path="url(#clip0_81_5388)">
<path d="M43.2148 120.105L43.1565 120.07C42.5825 119.725 41.895 119.623 41.2452 119.785C40.5954 119.947 40.0366 120.36 39.6917 120.934C39.3468 121.508 39.244 122.196 39.4061 122.845C39.5681 123.495 39.9816 124.054 40.5556 124.399L40.6139 124.434C41.1879 124.779 41.8754 124.882 42.5252 124.72C43.175 124.558 43.7338 124.144 44.0787 123.57C44.4236 122.996 44.5264 122.309 44.3643 121.659C44.2023 121.009 43.7888 120.45 43.2148 120.105Z" fill="white"/>
<path d="M120.522 59.4661C119.664 58.9505 118.712 58.61 117.721 58.4644L118.394 57.3441C119.552 55.5139 119.937 53.2994 119.465 51.1859C118.993 49.0724 117.702 47.2322 115.876 46.0685C115.017 45.553 114.066 45.2123 113.075 45.0658L114.323 42.9881C114.926 42.0905 115.34 41.0798 115.539 40.0173C115.739 38.9549 115.721 37.863 115.486 36.8078C115.251 35.7527 114.803 34.7563 114.171 33.8794C113.539 33.0024 112.736 32.263 111.809 31.7063C110.882 31.1495 109.852 30.7869 108.781 30.6405C107.71 30.4941 106.62 30.567 105.578 30.8547C104.536 31.1424 103.563 31.6389 102.719 32.3141C101.875 32.9894 101.177 33.8291 100.667 34.7825L100.324 35.3534C99.7306 34.5472 98.9833 33.8666 98.1254 33.3509C96.2404 32.2846 94.0096 32.009 91.9218 32.5843C89.8339 33.1596 88.0592 34.5391 86.9865 36.4204L78.1623 51.1062C77.5684 50.3005 76.821 49.6203 75.9631 49.1046C74.0781 48.0377 71.847 47.7616 69.7587 48.3368C67.6705 48.9119 65.8954 50.2915 64.8225 52.1731L64.4805 52.7423C63.8868 51.9363 63.1396 51.2558 62.2818 50.7398C60.3968 49.6741 58.1662 49.3988 56.0787 49.9742C53.9911 50.5496 52.2166 51.9288 51.1438 53.8098L35.7312 79.4605L32.7379 71.5733C30.8926 66.7091 27.0121 65.5465 24.2504 66.0266C22.6305 66.3103 21.1598 67.1484 20.09 68.3973C19.0203 69.6463 18.4182 71.2284 18.3869 72.8726L17.9859 95.8336C17.963 97.2879 18.2348 98.7317 18.7847 100.078C19.3345 101.425 20.1512 102.646 21.1855 103.669L18.4728 108.183C18.1279 108.757 18.0252 109.445 18.1872 110.095C18.3492 110.744 18.7627 111.303 19.3367 111.648L31.9062 119.201C32.4802 119.546 33.1677 119.648 33.8175 119.486C34.4673 119.324 35.0261 118.911 35.371 118.337C35.7159 117.763 35.8187 117.075 35.6567 116.425C35.4947 115.776 35.0812 115.217 34.5071 114.872L24.1011 108.619L26.6578 104.364C26.8286 104.08 26.9417 103.765 26.9907 103.437C27.0397 103.109 27.0237 102.775 26.9434 102.453C26.8632 102.131 26.7204 101.829 26.5232 101.562C26.3259 101.296 26.0781 101.07 25.7939 100.9C24.9387 100.384 24.2339 99.6525 23.7497 98.7789C23.2655 97.9054 23.019 96.9201 23.0347 95.9215L23.4348 72.9622C23.4397 72.49 23.6109 72.0346 23.9182 71.676C24.2256 71.3175 24.6496 71.0788 25.1155 71.0019C26.3105 70.7936 27.3669 71.6546 28.013 73.3635L32.8522 86.1199C33.0204 86.563 33.3099 86.9498 33.6876 87.2361C34.0654 87.5225 34.516 87.6967 34.9881 87.7388C35.4602 87.781 35.9347 87.6895 36.3572 87.4747C36.7797 87.2599 37.1332 86.9305 37.3773 86.5242L55.4706 56.4119C55.8614 55.6862 56.5188 55.1405 57.3042 54.8901C58.0895 54.6396 58.9415 54.7039 59.6803 55.0694C60.3498 55.5501 60.8065 56.2721 60.9539 57.0831C61.1013 57.894 60.9279 58.7305 60.4704 59.4162L46.9728 81.8799C46.6279 82.454 46.5252 83.1415 46.6872 83.7913C46.8492 84.441 47.2627 84.9999 47.8367 85.3448C48.4107 85.6897 49.0982 85.7924 49.748 85.6304C50.3978 85.4684 50.9566 85.0549 51.3015 84.4809L69.1512 54.774C69.5419 54.0485 70.1991 53.503 70.9842 53.2526C71.7693 53.0022 72.6209 53.0664 73.3596 53.4318C74.0292 53.9123 74.486 54.6342 74.6337 55.4451C74.7814 56.256 74.6083 57.0925 74.151 57.7782L56.3009 87.486C55.9559 88.06 55.8532 88.7475 56.0152 89.3973C56.1772 90.0471 56.5907 90.6059 57.1647 90.9508C57.7387 91.2957 58.4263 91.3984 59.076 91.2364C59.7258 91.0744 60.2846 90.6609 60.6295 90.0869L73.2212 69.1309C73.3886 68.7476 73.6358 68.4045 73.9464 68.1244C74.2569 67.8443 74.6236 67.6336 75.0221 67.5065C75.4205 67.3793 75.8414 67.3386 76.2568 67.387C76.6722 67.4355 77.0725 67.5719 77.431 67.7873C77.7894 68.0027 78.0978 68.2921 78.3356 68.6361C78.5734 68.9802 78.7351 69.371 78.8098 69.7824C78.8846 70.1939 78.8708 70.6166 78.7692 71.0223C78.6677 71.428 78.4808 71.8073 78.2211 72.1351L65.6294 93.0911C65.2845 93.6651 65.1817 94.3527 65.3438 95.0024C65.5058 95.6522 65.9193 96.211 66.4933 96.5559C67.0673 96.9008 67.7548 97.0036 68.4046 96.8416C69.0544 96.6796 69.6132 96.2661 69.9581 95.6921L77.867 82.5294C78.0348 82.1467 78.2823 81.8041 78.5928 81.5246C78.9034 81.245 79.27 81.0348 79.6682 80.908C80.0664 80.7812 80.487 80.7407 80.902 80.7893C81.3171 80.8378 81.717 80.9742 82.0752 81.1894C82.4334 81.4047 82.7416 81.6937 82.9793 82.0374C83.217 82.3811 83.3788 82.7715 83.4538 83.1826C83.5287 83.5937 83.5153 84.0161 83.4142 84.4215C83.3132 84.827 83.1269 85.2063 82.8677 85.5341L67.0674 111.83C64.6632 115.832 60.0003 118.262 54.2771 118.495C53.8594 118.512 53.4525 118.633 53.093 118.846C52.7334 119.06 52.4325 119.359 52.2171 119.717L49.6605 123.972L49.4351 123.837C48.861 123.492 48.1735 123.389 47.5237 123.551C46.874 123.713 46.3151 124.127 45.9702 124.701C45.6253 125.275 45.5226 125.962 45.6846 126.612C45.8466 127.262 46.2601 127.821 46.8341 128.166L49.2222 129.601C49.5064 129.771 49.8215 129.884 50.1494 129.933C50.4774 129.982 50.8118 129.966 51.1335 129.886C51.4552 129.806 51.758 129.663 52.0246 129.466C52.2911 129.269 52.5162 129.021 52.687 128.737L55.8653 123.447C62.6965 122.809 68.3072 119.568 71.3964 114.427L76.0014 106.763L85.0659 112.209C85.64 112.554 86.3275 112.657 86.9773 112.495C87.627 112.333 88.1858 111.92 88.5308 111.346L91.7065 106.06C98.5382 105.422 104.149 102.18 107.238 97.0399L123.038 70.7429C124.196 68.9128 124.582 66.6983 124.11 64.5846C123.638 62.4709 122.348 60.6303 120.522 59.4661ZM102.91 94.4364C100.507 98.4368 95.8434 100.868 90.1202 101.101C89.7024 101.118 89.2955 101.239 88.9359 101.452C88.5763 101.666 88.2754 101.965 88.0602 102.324L85.5036 106.579L78.6051 102.433L87.1964 88.1351C88.3539 86.3047 88.7387 84.0901 88.2665 81.9765C87.7943 79.863 86.5036 78.0227 84.6772 76.859C83.8191 76.3438 82.8676 76.0033 81.8775 75.8569L82.5511 74.7357C83.7085 72.9054 84.0934 70.6911 83.6213 68.5776C83.1493 66.4642 81.8589 64.624 80.0328 63.4601C79.1744 62.9444 78.2223 62.604 77.2316 62.4583L91.3138 39.0217C91.4816 38.639 91.729 38.2964 92.0396 38.0168C92.3502 37.7372 92.7168 37.5271 93.115 37.4003C93.5131 37.2735 93.9338 37.233 94.3488 37.2815C94.7639 37.3301 95.1638 37.4665 95.522 37.6817C95.8802 37.8969 96.1884 38.186 96.4261 38.5297C96.6638 38.8734 96.8255 39.2638 96.9005 39.6749C96.9755 40.086 96.962 40.5083 96.861 40.9138C96.7599 41.3193 96.5736 41.6986 96.3145 42.0264L85.7562 59.5983C85.4113 60.1723 85.3086 60.8599 85.4706 61.5097C85.6326 62.1594 86.0461 62.7182 86.6201 63.0632C87.1941 63.4081 87.8816 63.5108 88.5314 63.3488C89.1812 63.1868 89.74 62.7733 90.0849 62.1993L104.996 37.3834C105.164 37.0007 105.411 36.6582 105.722 36.3786C106.032 36.099 106.399 35.8888 106.797 35.762C107.195 35.6352 107.616 35.5948 108.031 35.6433C108.446 35.6918 108.846 35.8282 109.204 36.0435C109.562 36.2587 109.87 36.5478 110.108 36.8915C110.346 37.2351 110.508 37.6255 110.583 38.0366C110.658 38.4477 110.644 38.8701 110.543 39.2756C110.442 39.681 110.256 40.0603 109.997 40.3882L95.0872 65.2014C94.7423 65.7755 94.6395 66.463 94.8015 67.1128C94.9635 67.7625 95.377 68.3214 95.9511 68.6663C96.5251 69.0112 97.2126 69.1139 97.8624 68.9519C98.5122 68.7899 99.071 68.3764 99.4159 67.8024L109.067 51.7399C109.235 51.3572 109.482 51.0147 109.793 50.7351C110.104 50.4555 110.47 50.2453 110.868 50.1185C111.267 49.9917 111.687 49.9513 112.102 49.9998C112.517 50.0483 112.917 50.1847 113.275 50.4C113.634 50.6152 113.942 50.9043 114.179 51.2479C114.417 51.5916 114.579 51.982 114.654 52.3931C114.729 52.8042 114.715 53.2266 114.614 53.6321C114.513 54.0375 114.327 54.4168 114.068 54.7447L104.417 70.8071C104.072 71.3811 103.969 72.0687 104.131 72.7184C104.293 73.3682 104.706 73.927 105.28 74.2719C105.854 74.6168 106.542 74.7196 107.192 74.5576C107.842 74.3956 108.4 73.9821 108.745 73.4081L113.713 65.1398C113.881 64.7566 114.128 64.4135 114.439 64.1334C114.749 63.8532 115.116 63.6426 115.514 63.5154C115.913 63.3883 116.334 63.3476 116.749 63.396C117.164 63.4444 117.565 63.5809 117.923 63.7963C118.282 64.0117 118.59 64.301 118.828 64.6451C119.066 64.9891 119.227 65.3799 119.302 65.7914C119.377 66.2028 119.363 66.6255 119.261 67.0312C119.16 67.4369 118.973 67.8163 118.713 68.144L102.91 94.4364Z" fill="white"/>
<path d="M92.6212 10.8014C92.9054 10.9729 93.2207 11.0867 93.549 11.1363C93.8773 11.1859 94.2121 11.1702 94.5344 11.0902C94.8566 11.0102 95.1599 10.8674 95.4269 10.6701C95.6938 10.4727 95.9193 10.2247 96.0903 9.94006L96.1083 9.91006C96.4532 9.33604 96.556 8.64852 96.394 7.99874C96.2319 7.34896 95.8184 6.79015 95.2444 6.44524C94.6704 6.10034 93.9829 5.99759 93.3331 6.1596C92.6833 6.32161 92.1245 6.7351 91.7796 7.30912L91.7616 7.33912C91.4171 7.9124 91.3142 8.59892 91.4753 9.24802C91.6365 9.89712 92.0486 10.4558 92.6212 10.8014Z" fill="white"/>
<path d="M52.6139 40.9674C53.1879 41.3123 53.8754 41.415 54.5252 41.253C55.175 41.091 55.7338 40.6775 56.0787 40.1035C56.4236 39.5295 56.5264 38.842 56.3644 38.1922C56.2024 37.5424 55.7889 36.9836 55.2148 36.6387L44.3562 30.1142C43.7822 29.7693 43.0947 29.6665 42.4449 29.8285C41.7951 29.9905 41.2363 30.404 40.8914 30.9781C40.5465 31.5521 40.4438 32.2396 40.6058 32.8894C40.7678 33.5392 41.1813 34.098 41.7553 34.4429L52.6139 40.9674Z" fill="white"/>
<path d="M65.0032 25.7418C65.1732 26.3828 65.5886 26.9312 66.1596 27.2685C66.7307 27.6058 67.4115 27.7049 68.055 27.5444C68.6985 27.3838 69.253 26.9766 69.5987 26.4106C69.9443 25.8446 70.0535 25.1653 69.9024 24.5195L66.8394 12.2283C66.7591 11.9066 66.6163 11.6038 66.4191 11.3372C66.2219 11.0707 65.974 10.8456 65.6898 10.6748C65.4056 10.504 65.0905 10.3909 64.7625 10.3418C64.4346 10.2928 64.1002 10.3089 63.7784 10.3891C63.4567 10.4693 63.1539 10.6122 62.8873 10.8094C62.6208 11.0066 62.3957 11.2544 62.2249 11.5387C62.0541 11.8229 61.941 12.138 61.892 12.466C61.8429 12.7939 61.859 13.1283 61.9392 13.4501L65.0032 25.7418Z" fill="white"/>
<path d="M83.9917 25.1631C84.5657 25.508 85.2532 25.6108 85.903 25.4488C86.5528 25.2868 87.1116 24.8733 87.4565 24.2993L92.4462 15.995C92.617 15.7108 92.7301 15.3957 92.7791 15.0678C92.8281 14.7398 92.8121 14.4054 92.7318 14.0837C92.6516 13.762 92.5088 13.4592 92.3116 13.1926C92.1144 12.9261 91.8665 12.701 91.5823 12.5302C91.2981 12.3594 90.983 12.2463 90.6551 12.1973C90.3271 12.1483 89.9927 12.1643 89.671 12.2446C89.3493 12.3248 89.0465 12.4676 88.7799 12.6648C88.5134 12.8621 88.2883 13.1099 88.1175 13.3941L83.1278 21.6983C82.7829 22.2723 82.6802 22.9599 82.8422 23.6096C83.0042 24.2594 83.4177 24.8182 83.9917 25.1631Z" fill="white"/>
</g>
<defs>
<clipPath id="clip0_81_5388">
<rect width="136.58" height="145.678" fill="white" transform="translate(0.709961 0.902832)"/>
</clipPath>
</defs>
</svg>
