<svg width="550" height="555" viewBox="0 0 550 555" fill="none" xmlns="http://www.w3.org/2000/svg">
<path d="M116.361 522.371C116.361 522.371 101.812 520.295 87.2573 520.295C72.7023 520.295 67.5069 530.686 73.7466 530.686C73.7466 530.686 30.0946 537.964 51.9206 542.121C73.7466 546.272 141.307 541.077 116.361 522.371Z" fill="#33A86D"/>
<path d="M357.675 496.361C361.886 492.328 347.015 491.796 328.618 492.623C305.268 493.674 310.05 498.817 310.05 498.817C310.05 498.817 297.412 498.174 290.969 502.134C287.035 504.551 293.032 506.095 311.087 507.159C329.137 508.223 334.812 502.16 334.812 502.16C334.812 502.16 353.459 500.394 357.675 496.361Z" fill="#33A86D"/>
<path d="M157.596 498.357C161.806 494.804 146.935 492.577 128.538 491.316C105.188 489.714 109.97 495.402 109.97 495.402C109.97 495.402 97.3326 493.32 90.8893 496.551C86.9549 498.522 92.9517 500.748 111.008 503.862C129.063 506.975 134.732 501.563 134.732 501.563C134.732 501.563 153.385 501.911 157.596 498.357Z" fill="#33A86D"/>
<path d="M202.108 515.106C202.108 515.106 182.2 514.771 165.208 517.431C148.217 520.092 153.924 525.799 158.45 525.799C162.975 525.799 90.7713 546.469 111.159 551.783C131.547 557.097 161.872 554.686 245.754 550.666C289.406 548.578 311.232 538.292 292.526 534.633C275.764 531.356 232.604 527.244 232.604 527.244C245.077 518.601 202.108 515.106 202.108 515.106Z" fill="#33A86D"/>
<path d="M108.656 522.351C108.656 522.351 107.33 513.931 109.983 513.931C112.637 513.931 112.197 519.251 112.197 519.251C112.197 519.251 117.517 511.27 117.517 514.377C117.517 517.477 114.857 520.138 114.857 520.138C114.857 520.138 109.99 525.458 108.656 522.351Z" fill="#288453"/>
<path d="M141.405 538.772C141.405 538.772 144.144 527.56 141.405 527.061C138.666 526.561 138.167 533.287 138.167 534.036C138.167 534.785 137.918 522.824 135.927 522.574C133.937 522.325 132.939 527.061 132.939 527.061C132.939 527.061 131.192 523.573 128.952 526.312C126.712 529.051 129.202 531.047 129.202 531.047C129.202 531.047 126.712 530.548 125.215 533.537C123.717 536.525 132.19 539.763 132.19 539.763L128.952 541.753C128.952 541.767 137.169 542.016 141.405 538.772Z" fill="#33A86D"/>
<path d="M322.109 534.233C322.109 534.233 319.843 532.348 320.979 529.701C322.109 527.06 324.375 530.075 324.375 530.075C324.375 530.075 326.26 522.147 328.907 524.033C331.547 525.918 329.281 529.32 329.281 529.32C329.281 529.32 336.079 517.99 339.101 522.903C342.122 527.809 334.95 531.967 334.95 531.967C334.95 531.967 340.237 535.744 337.971 535.744C335.705 535.744 320.979 537.629 318.713 536.873C316.447 536.125 322.109 534.233 322.109 534.233Z" fill="#288453"/>
<path d="M180.801 533.11C164.972 529.865 151.034 534.922 159.146 537.359C159.146 537.359 126.692 540.742 136.61 544.394C146.528 548.046 190.699 547.1 201.918 546.016C213.136 544.932 216.742 543.849 221.951 540.059C227.159 536.269 196.63 536.354 180.801 533.11Z" fill="#288453"/>
<path d="M162.653 548.072C162.653 548.072 161.451 541.859 163.258 543.264C165.057 544.67 165.655 549.878 162.653 548.072Z" fill="#33A86D"/>
<path d="M192.703 547.323C192.703 547.323 191.501 541.11 193.307 542.515C195.107 543.914 195.704 549.123 192.703 547.323Z" fill="#33A86D"/>
<path d="M159.448 547.271C159.448 547.271 158.246 541.057 160.052 542.463C161.852 543.868 162.45 549.077 159.448 547.271Z" fill="#33A86D"/>
<path d="M97.5759 528.643C97.5759 528.643 91.6514 523.257 94.883 521.911C98.1145 520.564 97.8452 524.604 97.8452 524.604C97.8452 524.604 98.3838 515.178 101.077 516.525C103.77 517.871 101.885 522.18 101.885 522.18C101.885 522.18 103.77 517.333 104.308 520.564C104.847 523.796 101.346 529.72 97.5759 528.643Z" fill="#288453"/>
<path d="M182.299 445.339V196.918C182.299 196.918 182.299 192.169 187.048 188.097C191.796 184.025 197.905 178.599 197.905 178.599V116.819C197.905 114.501 199.613 112.53 201.905 112.202L212.151 110.737V15.1309C212.151 12.392 214.279 10.1259 217.012 9.94859L234.549 8.82544L239.98 14.369C239.98 14.369 400.132 8.9371 406.24 8.9371C412.349 8.9371 489.032 46.2574 495.817 49.6532C502.602 53.0489 498.53 55.085 499.213 62.5465C499.889 70.0079 499.889 230.166 499.889 230.166V441.95L182.299 445.339Z" fill="#F7BC4B"/>
<path d="M239.98 14.369L256.834 32.5235L252.782 191.591L266.03 233.687L265.248 256.294L265.084 262.744L264.473 329.569L382.956 332.682L385.295 178.343L387.62 7.96509L239.98 14.369Z" fill="#FF6600"/>
<path d="M394.3 20.3131V230.77L447.751 232.544L452.316 168.918L432.979 149.857V26.1916C432.979 26.1916 426.904 3.70877 418.759 1.67263C413.919 0.464092 407.488 12.3196 401.439 12.7006C397.419 12.9567 394.3 16.2934 394.3 20.3131Z" fill="#CE9436"/>
<path d="M383.593 15.7548C383.593 24.497 383.593 244.215 383.593 244.215H443.607V185.857L417.143 170.251C417.143 170.251 417.143 29.3312 417.143 21.6333C417.143 13.9354 411.377 8.73999 408.29 8.73999C405.203 8.73999 392.657 8.9239 388.723 8.9239C384.782 8.9239 383.593 13.4691 383.593 15.7548Z" fill="#CC6D3D"/>
<path d="M387.62 7.965C387.62 16.7072 387.62 227.296 387.62 227.296H447.633V168.938L421.17 153.332C421.17 153.332 421.17 21.5414 421.17 13.8435C421.17 6.14562 420.06 0.950195 416.973 0.950195C413.886 0.950195 396.69 1.1341 392.749 1.1341C388.808 1.1341 387.62 5.68585 387.62 7.965Z" fill="#F7BC4B"/>
<path d="M248.118 23.1965V192.846L263.048 201.667V253.923L255.586 262.744L259.659 270.206V355.033L266.444 351.644L269.156 270.206L265.084 262.744L269.156 257.995V190.81L262.26 181.141L256.834 32.5233L248.118 23.1965Z" fill="#CC6D3D"/>
<path d="M314.056 34.7565V42.9535C314.056 43.8008 314.746 44.4708 315.593 44.4511L364.184 43.0652C365.176 43.0389 365.912 42.0865 365.682 41.1276L363.731 32.9896C363.567 32.3 362.95 31.8271 362.234 31.8468L315.593 33.1801C314.746 33.1933 314.056 33.9026 314.056 34.7565Z" fill="#FEED7F"/>
<path d="M361.978 59.7681L336.473 60.4972C335.363 60.5301 334.457 59.6499 334.457 58.5399V52.9044C334.457 51.7944 335.357 50.8683 336.473 50.8354L361.978 50.1064C363.088 50.0735 363.994 50.9471 363.994 52.0637V57.6992C363.994 58.8092 363.094 59.7353 361.978 59.7681Z" fill="#FEED7F"/>
<path d="M303.455 136.071L274.194 136.905C272.788 136.944 271.646 135.834 271.646 134.429V128.254C271.646 126.849 272.788 125.673 274.194 125.634L303.455 124.8C304.861 124.76 306.004 125.87 306.004 127.276V133.45C306.004 134.855 304.861 136.031 303.455 136.071Z" fill="#FEED7F"/>
<path d="M335.941 132.997L326.01 133.279C325.045 133.305 324.263 132.55 324.263 131.584V127.02C324.263 126.054 325.045 125.253 326.01 125.226L335.941 124.944C336.907 124.918 337.689 125.673 337.689 126.639V131.203C337.682 132.162 336.9 132.97 335.941 132.997Z" fill="#FEED7F"/>
<path d="M315.534 157.739L280.368 158.744C279.107 158.777 278.089 157.785 278.089 156.524V151.42C278.089 150.159 279.114 149.108 280.368 149.076L315.534 148.071C316.795 148.038 317.813 149.03 317.813 150.291V155.394C317.82 156.649 316.795 157.7 315.534 157.739Z" fill="#FEED7F"/>
<path d="M339.291 221.811H311.908V232.012H339.291V221.811Z" fill="#FEED7F"/>
<path d="M413.446 8.65454L407.304 17.0421L412.428 30.6054L411.521 61.5611L416.04 77.5612L416.644 35.4789L415.738 24.3525L418.753 20.5298C418.759 20.5232 416.158 9.00265 413.446 8.65454Z" fill="#FEED7F"/>
<path d="M226.273 80.6023L235.935 104.76L229.491 122.481L231.107 154.698V174.021L226.273 170.803L223.856 149.864L227.074 107.985L226.273 80.6023Z" fill="#CC6D3D"/>
<path d="M198.621 153.082L197.012 182.882L202.647 196.576L201.839 259.394L204.256 267.447L208.283 195.769L201.038 179.663L198.621 153.082Z" fill="#CE9436"/>
<path d="M249.09 130.533L226.542 171.696L248.02 197.115L245.872 222.882L266.273 252.951L263.048 201.667L250.167 180.202L249.09 130.533Z" fill="#CC6D3D"/>
<path d="M443.456 24.2212L442.385 73.6204L460.638 118.724V159.532L501.446 225.036L499.995 54.1063C499.981 52.4118 499.003 50.8748 497.479 50.1457L443.456 24.2212Z" fill="#CE9436"/>
<path d="M254.194 76.3069L271.107 83.5516L283.994 77.1082L321.038 77.9161L283.994 81.1345L269.491 90.8028L251.777 81.9424L254.194 76.3069Z" fill="#CC6D3D"/>
<path d="M385.472 123.821L392.717 137.515L385.472 146.376V123.821Z" fill="#CC6D3D"/>
<path d="M208.571 277.45L230.141 278.238L241.806 292.564L247.731 335.23L239.126 386.344L215.566 405.05L202.272 365.004L208.571 277.45Z" fill="#4B3355"/>
<path d="M241.806 292.563L227.888 310.659L231.586 335.171L240.788 361.49L247.731 335.23L241.806 292.563Z" fill="#665070"/>
<path d="M549.925 249.851C549.925 249.851 535.672 213.884 532.283 209.135C528.894 204.386 526.851 202.35 511.922 201.673C496.992 200.997 480.027 196.241 480.027 196.241L448.828 211.072L444.743 224.064L457.636 460.899L494.996 477.694L534.464 478.193L542.457 467.008C542.457 467.008 540.421 321.109 540.421 311.605C540.421 302.101 545.17 300.071 547.883 298.035C550.602 295.992 549.925 249.851 549.925 249.851Z" fill="#273252"/>
<path d="M457.952 208.924L476.743 204.09L501.978 215.9C501.978 215.9 510.569 220.734 515.935 219.118C521.302 217.503 529.893 214.284 529.893 214.284L535.798 225.023L544.927 251.867L544.389 285.155L532.041 283.545L518.615 319.519L503.85 279.25L511.903 253.476L498.747 221.798L475.659 209.45L457.952 208.924Z" fill="#3E4C6F"/>
<path d="M92.4001 323.821L108.689 308.892V247.815L109.674 228.57C109.904 224.117 112.532 220.136 116.538 218.173L171.12 191.486C171.12 191.486 190.798 194.882 200.302 200.984C209.8 207.092 214.555 217.273 214.555 217.273L217.268 247.808V294.633C217.268 294.633 219.304 296.669 214.555 300.741C209.806 304.813 209.123 306.849 209.123 306.849C209.123 306.849 207.763 310.245 208.446 313.634C209.123 317.03 208.446 432.393 208.446 432.393L179.264 473.806H104.617L95.7959 439.861L92.4001 323.821Z" fill="#3E4C6F"/>
<path d="M92.4001 323.821L108.689 308.892V247.815L109.418 233.627C109.806 226.048 114.279 219.276 121.096 215.946L123.671 214.685L171.12 191.486L155.054 227.545L164.295 260.649C163.704 264.045 164.676 267.532 166.949 270.127L170.404 274.074C174.43 278.678 175.809 281.069 180.578 277.24L217.268 247.802L216.341 269.582L201.038 282.468L196.203 316.294C196.203 316.294 192.302 370.889 192.985 374.285C193.241 375.572 178.489 367.841 178.489 367.841L163.185 432.387L179.264 473.799H104.617L95.7959 439.855L92.4001 323.821Z" fill="#273252"/>
<path d="M151.369 265.66L141.708 281.766L159.422 285.792L167.481 287.408L161.038 267.27L151.369 265.66Z" fill="#3E4C6F"/>
<path d="M130.154 238.114L144.124 230.606L152.446 232.373C153.858 232.472 158.259 256.583 157.28 257.608L150.128 255.999L141.937 251.697C141.819 253.056 139.894 253.207 139.566 251.887L132.761 264.511L125.359 265.076L115.914 245.818L130.154 238.114Z" fill="#48598B"/>
<path d="M119.152 225.568L135.264 229.325L149.76 220.202L169.09 193.352L134.187 210.534L115.934 222.882L119.152 225.568Z" fill="#48598B"/>
<path d="M506.812 283.02L504.132 309.332L514.864 332.419L517.196 357.116L521.846 375.369L513.255 357.116L511.107 334.567L499.298 308.794L503.863 279.263L506.812 283.02Z" fill="#3E4C6F"/>
<path d="M515.942 357.923L530.438 364.629L536.342 384.498L536.881 393.628L534.733 383.96L528.29 367.854L517.551 363.559L515.942 357.923Z" fill="#3E4C6F"/>
<path d="M458.017 223.289C456.27 221.542 458.602 213.404 462.09 219.992C465.571 226.58 459.758 225.03 458.017 223.289Z" fill="#288453"/>
<path d="M451.738 221.266C449.216 219.907 450.188 212.642 452.9 214.678C454.45 215.841 457.413 217.194 455.225 220.688C454.26 222.238 454.26 222.626 451.738 221.266Z" fill="#288453"/>
<path d="M452.973 214.567C450.26 212.629 450.26 201.384 454.523 204.485C458.792 207.585 455.685 216.504 452.973 214.567Z" fill="#288453"/>
<path d="M458.017 216.892C458.017 216.892 459.955 208.754 461.892 213.017C463.83 217.279 458.017 216.892 458.017 216.892Z" fill="#288453"/>
<path d="M450.444 232.071C450.444 232.071 451.62 224.478 448.336 227.158C445.051 229.838 446.694 234.304 450.444 232.071Z" fill="#288453"/>
<path d="M449.229 214.422C448.027 213.056 443.514 211.808 446.516 216.747C449.932 222.37 450.424 215.788 449.229 214.422Z" fill="#288453"/>
<path d="M451.423 228.715C451.423 228.715 459.948 234.915 458.01 230.265C456.073 225.614 451.81 225.227 451.423 228.715Z" fill="#288453"/>
<path d="M451.035 213.792C451.035 213.792 449.873 201.772 448.322 205.654C446.772 209.535 448.71 214.567 451.035 213.792Z" fill="#288453"/>
<path d="M443.127 216.714C440.382 215.604 437.163 218.376 443.396 220.484C449.623 222.586 445.873 217.824 443.127 216.714Z" fill="#288453"/>
<path d="M49.2866 486.009C45.8909 484.65 39.106 467.684 43.1782 463.618C47.2505 459.546 49.9631 460.223 46.574 449.365C43.1782 438.508 43.8613 380.827 43.8613 357.076C43.8613 333.326 43.8613 312.288 47.9336 302.79C52.0059 293.293 47.9336 283.789 50.6462 279.04C53.3589 274.291 60.8269 270.895 60.8269 270.895C60.8269 270.895 62.863 248.504 64.2226 245.109C65.5822 241.713 79.8286 236.288 85.2605 236.288C90.6923 236.288 90.6923 239 99.5134 248.504C108.334 258.002 115.119 263.434 117.155 266.83C119.192 270.225 118.515 274.298 120.551 279.046C122.587 283.795 134.121 329.267 136.157 334.015C138.193 338.764 138.193 337.411 138.87 348.945C139.546 360.478 140.906 399.841 141.583 403.231C142.259 406.626 141.582 409.339 147.014 412.728C152.446 416.124 152.446 422.226 153.799 425.622C155.159 429.017 155.159 441.911 155.159 448.012C155.159 454.114 153.799 479.231 154.482 483.303C155.159 487.375 158.555 492.124 149.734 493.484C140.913 494.843 123.27 495.52 115.126 496.196C106.981 496.873 104.945 493.484 104.945 493.484C104.945 493.484 83.2309 492.124 73.7268 492.124C64.2226 492.124 60.8335 494.16 59.4739 491.448C58.1077 488.722 52.6824 487.362 49.2866 486.009Z" fill="#856792"/>
<path d="M99.8287 488.84L100.183 476.669L85.1488 458.771L88.0125 433.359L75.487 424.052L72.2686 407.231L62.2456 391.842C62.2456 391.842 70.8368 363.566 70.4755 361.418C70.1208 359.27 84.0782 353.904 84.0782 353.904L100.183 373.234L96.6037 392.564L100.183 411.533L123.448 476.683L115.218 475.967L111.638 492.788L99.8287 488.84Z" fill="#665070"/>
<path d="M72.6233 272.281L77.9894 270.849C77.9894 270.849 91.5002 279.263 91.5002 287.316C91.5002 295.368 86.666 305.036 86.666 305.036C86.666 305.036 85.0568 319.532 88.2752 328.393C91.4936 337.253 104.38 357.385 104.38 357.385L120.485 365.437C120.485 365.437 121.293 378.324 122.903 380.741C124.413 383.007 123.796 393.004 123.796 393.004C123.796 393.004 127.822 399.178 128.091 395.421C128.361 391.664 133.372 389.602 133.372 389.602L128.538 377.523L129.346 362.219L107.599 352.557L93.1028 327.592L92.2949 309.069L97.1291 287.322C97.1291 287.322 90.863 273.542 85.4969 269.785C83.2046 268.176 68.6758 270.501 68.6758 270.501L72.6233 272.281Z" fill="#BB83C3"/>
<path d="M125.333 381.542L122.916 388.255L125.333 437.116C125.333 437.116 128.466 424.406 130.075 411.52C131.684 398.639 125.333 381.542 125.333 381.542Z" fill="#BB83C3"/>
<path d="M46.134 466.646C46.134 466.646 52.5774 473.628 56.3344 473.628C60.0914 473.628 64.9256 465.576 64.9256 465.576C64.9256 465.576 76.7351 465.037 78.8829 465.037C81.0307 465.037 89.6219 473.09 89.6219 473.09L98.213 477.924L93.3789 478.462L86.9355 475.244L77.8057 468.801L66.5282 469.339L57.3984 478.469L48.2687 471.487L46.134 466.646Z" fill="#BB83C3"/>
<path d="M62.7778 470.942L57.4116 482.219L59.4674 491.435L53.648 485.438L52.5774 475.776H56.3344L62.7778 470.942Z" fill="#BB83C3"/>
<path d="M85.0634 243.821L79.4214 251.703L82.6464 261.332L91.5068 270.087L93.116 284.091L96.3344 270.961L89.891 263.086L84.2556 253.457L85.0634 243.821Z" fill="#BB83C3"/>
<path d="M52.0388 299.395C52.0388 299.395 48.0125 329.194 48.8204 337.247C49.6283 345.299 55.2638 352.551 55.2638 357.378C55.2638 362.206 54.4559 379.927 48.0125 391.204C41.5691 402.482 44.7941 363.822 44.7941 363.822L43.1849 329.188C43.1783 329.194 43.1784 300.202 52.0388 299.395Z" fill="#BB83C3"/>
<path d="M57.9435 380.472C51.2308 395.237 48.5444 395.776 52.5773 403.828C56.6036 411.881 64.9254 431.48 64.9254 431.48C64.9254 431.48 79.4214 450.81 82.6463 451.612C85.8647 452.42 81.8385 433.09 81.8385 433.09L75.3951 435.507L71.3688 432.288L62.5083 402.489L57.6742 395.237L63.3097 374.298L62.2391 353.359L58.2128 360.61L57.9435 380.472Z" fill="#BB83C3"/>
<path d="M69.7597 301.812L65.7334 315.506L69.7597 333.221V344.498L72.9781 332.419L69.7597 315.506L72.9781 295.368L69.7597 301.812Z" fill="#665070"/>
<path d="M69.7598 326.777L77.8123 329.194L88.282 328.393L79.4215 334.83L69.7598 333.22V326.777Z" fill="#665070"/>
<path d="M72.9782 295.368L62.5085 292.15L57.6809 284.899L51.2375 286.508L54.4559 290.534L60.0914 296.176L72.9782 295.368Z" fill="#665070"/>
<path d="M66.3377 358.856C67.7696 361.004 72.7811 362.075 73.8517 358.318C74.9223 354.561 70.6333 352.951 70.6333 352.951C70.6333 352.951 64.9059 356.708 66.3377 358.856Z" fill="#288453"/>
<path d="M67.2311 342.928C67.2311 342.928 66.1605 353.667 72.0653 349.91C77.97 346.153 71.5267 340.781 67.2311 342.928Z" fill="#33A86D"/>
<path d="M77.97 354.744C77.97 354.744 79.0406 362.258 81.727 357.431C84.4133 352.597 82.2656 349.91 77.97 354.744Z" fill="#33A86D"/>
<path d="M72.0652 364.945C72.0652 364.945 76.8994 353.667 77.4314 359.04C77.97 364.406 72.0652 364.945 72.0652 364.945Z" fill="#33A86D"/>
<path d="M246.548 334.514C246.548 334.514 245.833 320.137 250.141 326.606C254.45 333.076 250.857 336.675 250.857 336.675C250.857 336.675 255.172 326.606 259.488 335.237C263.803 343.868 253.018 345.306 253.018 345.306C253.018 345.306 238.64 346.022 238.64 335.237C238.64 324.452 246.548 334.514 246.548 334.514Z" fill="#33A86D"/>
<path d="M108.761 235.027C108.761 235.027 100.689 226.416 100.689 230.186C100.689 233.956 106.069 238.258 106.069 238.258C106.069 238.258 99.0734 237.719 100.151 241.49C101.228 245.26 106.607 243.105 106.607 243.105C106.607 243.105 111.986 253.332 114.679 243.105C117.372 232.879 111.448 217.805 108.761 235.027Z" fill="#33A86D"/>
<path d="M132.124 260.984C130.883 256.853 139.317 248.045 139.317 253.792C139.317 259.546 134.279 268.176 132.124 260.984Z" fill="#33A86D"/>
<path d="M127.711 272.235C127.711 272.235 133.425 263.664 134.857 268.898C136.289 274.133 129.136 281.279 127.711 272.235Z" fill="#33A86D"/>
<path d="M131.402 295.493C131.402 295.493 123.494 281.831 131.402 283.27C139.317 284.708 136.44 301.969 131.402 295.493Z" fill="#33A86D"/>
<path d="M139.317 294.777C139.317 294.777 150.102 283.992 149.386 290.462C148.663 296.932 142.909 301.247 139.317 294.777Z" fill="#33A86D"/>
<path d="M127.093 299.092C127.093 299.092 116.308 298.377 121.339 301.247C126.371 304.124 134.279 304.846 127.093 299.092Z" fill="#33A86D"/>
<path d="M122.778 290.462C122.778 290.462 112.709 288.308 118.463 291.9C124.216 295.493 122.778 290.462 122.778 290.462Z" fill="#33A86D"/>
<path d="M140.032 312.032C140.032 312.032 141.471 299.092 146.502 302.685C151.54 306.285 148.663 314.193 140.032 312.032Z" fill="#33A86D"/>
<path d="M135.717 319.94C135.717 319.94 127.809 307.716 135.001 312.032C142.187 316.347 143.625 319.94 135.717 319.94Z" fill="#33A86D"/>
<path d="M137.878 328.57C137.878 328.57 142.193 314.909 145.786 324.255C149.379 333.602 139.317 334.324 137.878 328.57Z" fill="#33A86D"/>
<path d="M140.755 340.794C140.755 340.794 128.532 329.286 132.847 335.762C137.156 342.232 140.755 340.794 140.755 340.794Z" fill="#33A86D"/>
<path d="M150.102 334.324C150.102 334.324 140.033 341.516 148.663 339.355C157.287 337.201 155.133 335.04 150.102 334.324Z" fill="#33A86D"/>
<path d="M131.763 326.771C131.763 326.771 125.294 333.24 131.402 331.447C137.51 329.654 138.955 324.978 131.763 326.771Z" fill="#33A86D"/>
<path d="M136.44 344.748C136.44 344.748 133.202 355.171 141.116 351.579C149.018 347.986 147.586 339.355 136.44 344.748Z" fill="#33A86D"/>
<path d="M148.663 350.863C148.663 350.863 153.34 344.754 156.571 347.986C159.803 351.217 139.317 359.132 148.663 350.863Z" fill="#33A86D"/>
<path d="M138.594 354.817C138.594 354.817 123.132 360.57 135.001 358.771C146.863 356.971 144.348 356.61 138.594 354.817Z" fill="#33A86D"/>
<path d="M142.187 360.571C142.187 360.571 145.425 365.602 150.095 362.37C154.765 359.139 151.179 359.848 142.187 360.571Z" fill="#33A86D"/>
<path d="M155.133 354.456C155.133 354.456 166.995 354.456 159.809 356.255C152.624 358.055 149.018 357.332 155.133 354.456Z" fill="#33A86D"/>
<path d="M136.795 363.441C136.795 363.441 131.402 370.633 141.471 366.679C151.54 362.725 136.795 363.441 136.795 363.441Z" fill="#33A86D"/>
<path d="M151.894 364.879C151.894 364.879 145.425 372.787 155.848 368.833C166.279 364.879 162.679 362.363 151.894 364.879Z" fill="#33A86D"/>
<path d="M140.032 371.355C140.032 371.355 139.671 375.671 145.425 373.155C151.179 370.633 149.379 369.556 140.032 371.355Z" fill="#33A86D"/>
<path d="M141.11 378.541C141.11 378.541 134.64 382.134 142.909 381.779C151.179 381.418 141.11 378.541 141.11 378.541Z" fill="#33A86D"/>
<path d="M126.371 308.8C126.371 308.8 112.709 306.285 119.901 309.877C127.093 313.47 127.809 310.593 126.371 308.8Z" fill="#33A86D"/>
<path d="M134.64 304.485C134.64 304.485 122.778 302.685 129.248 305.923C135.717 309.155 137.878 307.362 134.64 304.485Z" fill="#33A86D"/>
<path d="M147.586 315.986C147.586 315.986 159.448 309.877 155.133 314.908C150.818 319.94 138.233 324.255 147.586 315.986Z" fill="#33A86D"/>
<path d="M110.555 252.596C110.555 252.596 96.6565 249.72 102.404 253.555C108.151 257.391 115.829 257.391 110.555 252.596Z" fill="#33A86D"/>
<path d="M111.034 259.309C111.034 259.309 103.842 269.378 113.911 265.542C123.98 261.706 117.747 257.391 111.034 259.309Z" fill="#33A86D"/>
<path d="M110.555 252.596C110.555 252.596 122.535 249.72 115.829 254.514C109.116 259.309 110.555 252.596 110.555 252.596Z" fill="#33A86D"/>
<path d="M118.22 241.568C118.22 241.568 109.589 254.028 120.137 247.322C130.686 240.616 126.371 235.342 118.22 241.568Z" fill="#33A86D"/>
<path d="M124.932 249.24C124.932 249.24 131.645 251.637 123.973 254.035C116.308 256.432 118.699 254.994 124.932 249.24Z" fill="#33A86D"/>
<path d="M123.494 257.871C123.494 257.871 116.302 264.583 124.932 261.706C133.563 258.829 131.645 256.912 123.494 257.871Z" fill="#33A86D"/>
<path d="M118.699 271.289C118.699 271.289 105.28 272.248 115.343 275.125C125.405 278.002 123.494 273.207 118.699 271.289Z" fill="#33A86D"/>
<path d="M120.138 266.495C120.138 266.495 129.248 258.823 126.85 264.577C124.453 270.33 117.268 270.81 120.138 266.495Z" fill="#33A86D"/>
<path d="M128.308 265.457C128.308 265.457 139.816 262.58 132.144 266.416C124.473 270.252 128.308 265.457 128.308 265.457Z" fill="#33A86D"/>
<path d="M116.308 279.44C116.308 279.44 100.972 280.879 110.555 282.797C120.138 284.708 119.179 281.358 116.308 279.44Z" fill="#33A86D"/>
<path d="M108.637 274.166C108.637 274.166 98.5678 274.166 103.363 276.564C108.157 278.961 113.911 278.961 108.637 274.166Z" fill="#33A86D"/>
<path d="M374.378 328.84L258.929 330.002C256.67 330.002 251.593 328.57 251.593 335.283C251.593 341.996 251.639 345.529 251.639 345.529L375.738 345.129L374.378 328.84Z" fill="#4B3355"/>
<path d="M227.343 369.142C227.343 369.142 226.634 368.071 226.404 361.273C226.135 353.352 225.458 350.606 228.552 349.056C232.309 347.178 241.839 346.639 241.839 346.639L366.378 343.493L366.917 353.529V370.495L227.343 369.142Z" fill="#4B3355"/>
<path d="M226.246 351.5C226.246 351.5 225.616 348.984 228.959 348.104C236.913 346.015 241.392 344.583 251.77 344.229C262.148 343.874 366.91 344.032 366.91 344.032V353.529L226.246 351.5Z" fill="#FEED7F"/>
<path d="M227.882 369.063C227.882 369.063 227.613 369.286 219.383 371.611C211.153 373.937 210.167 376.413 210.167 379.125C210.167 381.838 217.419 381.273 217.419 381.273L365.564 383.421V369.963L227.882 369.063Z" fill="#FEED7F"/>
<path d="M212.578 395.073C208.998 395.073 206.673 397.208 200.407 400.426C195.678 402.863 192.177 404.006 191.461 407.94C190.607 412.623 366.916 422.889 366.916 422.889V396.433C366.916 396.433 216.157 395.073 212.578 395.073Z" fill="#FFACFF"/>
<path d="M197.543 403.651C194.187 404.498 192.775 403.933 191.639 405.845C190.726 407.375 190.384 410.377 190.384 411.887C190.384 415.283 190.279 422.902 190.279 422.902H366.91L364.342 405.805C364.342 405.805 293.807 404.866 244.434 404.235L241.163 405.989C241.163 405.989 237.432 404.15 236.197 404.13C214.87 403.841 199.015 403.277 197.543 403.651Z" fill="#4B3355"/>
<path d="M371.015 431.375L174.463 432.459C173.839 432.459 173.392 428.702 175.875 427.743L190.161 422.948C190.239 422.909 190.331 422.889 190.423 422.889H375.981C376.453 422.889 376.736 423.421 376.467 423.815L371.501 431.113C371.389 431.283 371.212 431.375 371.015 431.375Z" fill="#FFACFF"/>
<path d="M171.146 443.205C171.146 443.205 170.338 439.625 170.699 436.137C171.054 432.649 174.279 429.602 174.279 429.602C174.279 428.426 175.783 428.886 176.965 428.886L366.069 429.07C367.245 429.07 368.204 430.022 368.204 431.204V442.147C368.204 443.323 367.252 444.275 366.076 444.282L175.1 444.676C173.918 444.676 171.146 444.38 171.146 443.205Z" fill="#665070"/>
<path d="M173.32 443.152L151.599 451.973L336.342 456.984L377.774 451.973L371.508 444.098L173.32 443.152Z" fill="#FFACFF"/>
<path d="M151.599 451.934C151.599 451.934 149.221 461.996 148.86 464.498C148.505 467.001 151.599 470.055 151.599 470.055H372.342L379.803 451.257L343.587 452.689C343.587 452.689 337.209 454.837 335.534 454.837C329.36 454.837 322.378 451.428 322.378 451.428L151.599 451.934Z" fill="#665070"/>
<path d="M150.174 470.239L138.804 473.214C133.766 474.535 131.684 474.679 131.684 479.888L130.252 484.899C130.252 491.224 128.223 496.354 134.548 496.354H364.283C370.608 496.354 375.738 491.224 375.738 484.899V481.313C375.738 474.988 370.608 469.858 364.283 469.858H153.077C152.098 469.871 151.126 469.996 150.174 470.239Z" fill="#665070"/>
<path d="M151.422 469.917L134.633 474.311C133.287 474.666 133.195 476.544 134.502 477.03L143.881 480.492C144.098 480.571 154.003 476.347 154.233 476.314L177.753 476.328C177.826 476.321 177.898 476.314 177.97 476.314L292.335 478.981C292.821 478.994 293.274 479.25 293.524 479.671C294.076 480.59 295.402 480.597 295.961 479.684L296.46 478.869C296.716 478.449 297.176 478.193 297.675 478.193H369.8C370.772 478.193 371.462 477.241 371.153 476.314L369.688 471.914C369.498 471.336 368.953 470.942 368.342 470.942L151.789 469.871C151.665 469.871 151.54 469.884 151.422 469.917Z" fill="#FFACFF"/>
<path d="M259.829 328.124C259.829 328.124 250.167 330.718 252.315 331.526C254.463 332.334 276.479 331.881 284.801 332.419C293.123 332.958 368.027 331.881 368.027 331.881C368.027 331.881 370.89 328.124 360.959 328.393C351.015 328.656 259.829 328.124 259.829 328.124Z" fill="#FEED7F"/>
<path d="M228.867 351.211L232.447 352.281L234.233 353.891L246.404 352.104L249.268 352.82L253.563 350.672L228.867 351.211Z" fill="#FEED7F"/>
<path d="M349.485 377.621L345.741 380.741L343.37 377.661L341.281 377.674L340.368 379.316L336.152 377.707L279.16 378.055L275.114 379.283L270.568 379.933L261.439 377.03L212.755 376.8C212.755 376.8 210.161 376.413 210.161 379.126C210.161 381.838 209.176 394.337 211.862 395.947C214.549 397.556 365.557 397.779 365.557 397.779V377.516L349.485 377.621Z" fill="#4B3355"/>
<path d="M246.404 400.603L251.908 406.843C251.908 406.843 261.077 406.219 263.829 406.843C265.708 407.27 292.401 407.579 292.401 407.579L299.593 408.4L307.79 404.715L295.468 401.845L246.404 400.603Z" fill="#FFACFF"/>
<path d="M186.542 427.986L203.455 431.211L208.44 432.393L216.873 432.282L223.855 433.359L237.281 426.377L186.542 427.986Z" fill="#FFACFF"/>
<path d="M260.545 450.18L265.195 454.475L275.218 456.623L279.875 454.121L286.673 454.475L294.549 450.18H260.545Z" fill="#FFACFF"/>
<path d="M212.762 376.8L224.755 377.155L227.619 379.303L226.187 383.237L229.767 388.603V392.538L236.565 391.467L239.783 395.401L210.791 394.686C210.791 394.686 209.721 393.97 209.721 388.242C209.721 382.515 208.998 376.084 212.762 376.8Z" fill="#34283A"/>
<path d="M171.146 443.204C171.146 443.204 167.474 437.3 174.279 429.602L178.213 429.063L177.859 434.791L182.299 440.466C182.417 440.492 182.528 440.42 182.555 440.301L182.87 438.725L197.189 435.861L198.62 439.441L196.118 443.021L171.146 443.204Z" fill="#4B3355"/>
<path d="M201.576 412.958L204.263 416.446L204.932 419.533L210.036 419.664L212.584 422.351L213.123 422.751H195.402L190.423 422.896L190.167 416.846C190.167 416.846 190.167 408.387 190.568 407.585C190.969 406.784 192.584 404.768 192.584 404.768L197.95 403.29L202.246 405.438L201.576 412.958Z" fill="#34283A"/>
<path d="M157.99 476.492L159.96 484.367L165.865 485.438L168.551 490.81L174.279 496.354H145.642L146.542 490.988L142.062 486.87L144.571 480.787L154.233 476.314L157.99 476.492Z" fill="#4B3355"/>
<path d="M207.928 477.031L207.481 481.142L211.862 484.545L219.291 483.021L225.11 488.124L233.215 477.589L207.928 477.031Z" fill="#4B3355"/>
<path d="M175.711 475.953L177.143 478.101L181.793 474.883L186.804 478.101H193.964C193.964 478.101 194.318 480.965 195.395 481.32C196.473 481.674 203.271 475.237 203.271 475.237L176.427 472.019L175.711 475.953Z" fill="#FFACFF"/>
<path d="M322.47 427.631L324.618 431.211L331.777 431.566L340.007 429.418L343.586 431.211L346.095 427.631H322.47Z" fill="#FFACFF"/>
<path d="M246.548 334.514C246.548 334.514 245.833 320.137 250.141 326.606C254.45 333.076 250.857 336.675 250.857 336.675C250.857 336.675 255.172 326.606 259.488 335.237C263.803 343.868 253.018 345.306 253.018 345.306C253.018 345.306 238.64 346.022 238.64 335.237C238.64 324.452 246.548 334.514 246.548 334.514Z" fill="#33A86D"/>
<path d="M361.104 385.575C361.104 385.575 361.104 364.538 361.104 357.076C361.104 349.615 365.176 344.951 365.176 344.951C365.176 344.951 365.544 329.825 365.872 326.383C366.273 322.088 375.449 313.812 375.449 313.812L377.393 303.073V218.632C377.393 218.632 375.357 213.2 374.68 211.847C374.004 210.488 374.68 204.386 374.68 204.386C374.68 204.386 393.682 196.241 395.718 196.241C397.754 196.241 436.434 207.099 436.434 207.099C436.434 207.099 458.825 233.562 459.508 237.634C460.185 241.706 459.508 271.565 459.508 271.565L478.09 280.064L487.751 305.03C487.751 305.03 494.109 344.853 496.829 345.529C499.541 346.206 508.362 371.316 509.045 375.388C511.233 388.518 515.141 377.615 515.141 417.464L524.802 432.393L528.829 483.113L500.907 502.62L376.881 500.65L365.859 496.715L361.104 385.575Z" fill="#665070"/>
<path d="M431.042 276.577L447.449 284.629L449.715 293.22L455.942 300.734L461.032 314.16L461.157 324.36L486.411 330.265L486.95 336.439C486.95 336.439 485.341 358.718 485.341 363.014C485.341 367.309 484.08 401.405 484.08 401.405L493.131 425.03L484.08 496.978L371.633 488.118L369.367 410.265L377.853 337.247L390.299 328.656L395.961 285.7L410.674 268.518L431.042 276.577Z" fill="#856792"/>
<path d="M358.621 399.533C358.621 399.533 360.5 379.986 360.5 370.81C360.5 368.242 361.104 358.705 361.104 357.076C361.104 354.35 361.649 351.999 362.339 350.107C363.534 346.83 365.176 344.951 365.176 344.951C365.176 344.951 365.728 327.927 365.872 326.383C366.273 322.088 375.449 313.812 375.449 313.812L384.756 318.107L386.188 311.309L377.393 291.979V218.632C377.393 218.632 375.357 213.2 374.68 211.847C374.004 210.488 374.68 204.386 374.68 204.386C374.68 204.386 393.682 196.241 395.718 196.241C397.754 196.241 396.749 251.88 396.749 251.88C396.749 251.88 433.117 261.503 433.794 265.575C434.47 269.647 398.628 386.383 398.628 386.383L358.089 433.365L358.621 399.533Z" fill="#856792"/>
<path d="M382.247 330.803L386.004 303.959L408.263 282.481L437.012 284.629C437.012 284.629 441.577 288.754 442.253 293.503C442.93 298.252 452.047 308.255 452.047 308.255C452.047 308.255 453.767 320.078 455.265 329.851C455.62 332.176 477.636 335.756 478.352 336.446C483.252 341.142 479.423 375.552 479.423 379.132C479.423 382.712 504.52 403.658 505.196 407.053C505.873 410.449 511.41 425.615 511.41 425.615C511.41 425.615 499.83 498.16 499.83 501.55C499.83 504.939 378.483 500.742 378.483 500.742V341.542L382.247 330.803Z" fill="#1D2538"/>
<path d="M399.922 261.943L405.853 253.339L396.927 251.407L399.922 261.943Z" fill="#665070"/>
<path d="M398.358 210.803L391.107 217.246L399.968 225.299L398.358 210.803Z" fill="#665070"/>
<path d="M433.255 213.22L438.089 237.917C438.089 237.917 445.071 250.265 449.367 255.637C453.662 261.004 453.124 276.577 453.124 276.577L463.863 283.559L449.905 278.725C449.905 278.725 449.367 261.004 447.758 258.324C446.148 255.637 438.628 244.898 435.948 241.68C433.255 238.455 433.255 213.22 433.255 213.22Z" fill="#4B3355"/>
<path d="M381.498 368.347C381.498 368.347 373.59 368.065 369.255 368.538C364.566 369.05 361.347 369.668 356.638 377.392C352.598 384.019 350.799 390.39 349.669 393.024C348.539 395.658 348.914 397.168 352.303 400.183C355.692 403.198 375.659 412.991 386.201 402.068C396.75 391.145 395.239 377.208 391.85 373.819C388.461 370.429 381.498 368.347 381.498 368.347Z" fill="#665070"/>
<path d="M406.359 350.817C401.649 347.618 386.542 346.909 379.567 349.056C367.843 352.662 367.757 359.257 365.071 366.239C363.147 371.237 365.971 378.501 369.748 379.966C373.524 381.424 387.331 381.155 392.053 377.746C396.776 374.337 411.068 354.022 406.359 350.817Z" fill="#665070"/>
<path d="M396.001 349.687C396.001 349.687 388.691 349.056 396.75 354.968L386.602 369.694C386.602 369.694 379.843 372.813 377.768 378.009C375.692 383.204 379.699 396.544 379.429 398.659C378.3 407.697 366.621 442.351 369.636 454.784C372.651 467.211 397.886 457.799 425.761 461.944C453.637 466.088 501.098 457.799 507.876 456.295C514.655 454.791 508.849 428.919 506.182 422.58C500.152 408.268 501.847 400.17 498.839 388.492C495.824 376.814 501.479 370.107 486.037 360.689C470.582 351.27 411.443 344.794 396.001 349.687Z" fill="#856792"/>
<path d="M443.416 342.324C443.416 342.324 453.013 342.449 461.696 344.59C464.08 345.175 469.709 343.388 472.172 344.058C481.919 346.712 490.359 351.848 491.574 354.449C494.208 360.098 497.978 382.324 494.589 385.339C491.2 388.354 487.16 392.255 480.376 392.255C473.591 392.255 462.293 391.126 460.789 385.096C459.279 379.067 430.234 358.896 443.416 342.324Z" fill="#856792"/>
<path d="M386.017 401.667L379.423 394.508C367.37 393.753 360.211 394.883 355.318 398.653C350.418 402.416 347.029 409.385 345.899 419.178C344.769 428.971 344.769 435.75 354.937 442.909C365.104 450.068 367.745 448.558 378.667 451.947C389.59 455.336 408.014 451.605 408.014 451.605L410.162 445.7L411.232 435.5C411.232 435.5 409.4 426.009 409.623 423.152C409.814 420.695 403.521 412.209 399.758 411.835C395.994 411.461 388.835 410.705 385.82 409.575L386.017 401.667Z" fill="#856792"/>
<path d="M394.129 418.252H398.812C398.812 418.252 398.313 415.638 406.332 415.119C414.359 414.594 414.398 420.104 414.398 420.104C414.398 420.104 415.048 425.293 416.487 431.106C417.544 435.395 416.868 439.71 416.868 442.318C416.868 448.466 413.354 454.285 408.336 455.848C404.651 456.998 396.552 455.073 392.323 450.863C390.799 449.346 389.781 447.533 389.649 445.457C389.433 442.114 391.088 437.536 391.081 433.53C391.081 431.993 389.347 430.85 389.367 429.431C389.433 425.878 389.57 422.876 389.781 421.379C390.286 417.727 394.129 418.252 394.129 418.252Z" fill="#665070"/>
<path d="M393.538 420.209H399.344C399.344 420.209 399.304 417.641 401.951 417.365C411.902 416.893 410.661 421.635 410.661 421.635C410.661 421.635 413.235 425.431 414.543 431.888C415.364 435.914 415.403 439.684 415.403 442.055C415.403 447.638 410.661 452.939 404.441 454.357C399.869 455.402 396.546 453.655 391.304 449.832C389.419 448.453 388.152 446.804 387.987 444.925C387.725 441.891 389.767 437.733 389.761 434.095C389.761 432.696 387.606 431.664 387.639 430.37C387.718 427.139 387.895 424.42 388.152 423.06C388.769 419.737 393.538 420.209 393.538 420.209Z" fill="#856792"/>
<path d="M512.592 460.998C512.592 472.86 514.123 487.645 512.592 491.087C511.062 494.528 509.636 497.504 501.985 501.011C492.815 505.215 486.989 502.167 480.106 504.847C473.223 507.527 462.91 506.758 449.912 506.377C436.92 505.996 436.152 502.555 430.418 505.228C424.684 507.901 413.222 509.431 412.835 499.113C412.454 488.794 412.073 466.627 413.216 460.893C414.365 455.159 418.753 455.71 424.106 455.349C429.84 454.968 438.057 457.07 438.057 457.07C450.608 451.973 467.075 452.689 467.075 452.689C467.075 452.689 476.658 450.193 484.303 447.901C491.948 445.609 491.18 445.609 494.241 443.316C497.301 441.017 512.592 449.129 512.592 460.998Z" fill="#665070"/>
<path d="M360.027 438.961C360.027 438.961 341.537 445.221 336.184 448.663C330.831 452.104 328.539 454.778 328.539 463.947C328.539 473.116 329.688 480.38 329.688 484.203C329.688 488.026 336.184 494.522 340.388 499.487C344.592 504.453 347.265 502.541 356.441 503.691C365.616 504.84 367.521 501.779 374.405 502.541C381.281 503.303 391.988 501.011 391.988 501.011C391.988 501.011 394.28 504.065 400.776 504.834C407.272 505.595 402.306 505.595 408.802 505.215C415.298 504.834 419.121 502.922 418.74 486.489C418.359 470.055 422.181 463.559 416.066 458.975C409.951 454.39 408.421 454.009 402.687 453.622C396.953 453.234 395.955 455.001 391.751 454.239C387.547 453.477 369.584 450.035 366.91 446.213C364.23 442.403 366.523 441.254 360.027 438.961Z" fill="#665070"/>
<path d="M455.344 348.373C455.344 348.373 458.293 362.278 462.089 368.183C465.886 374.088 465.978 375.336 473.984 376.603C481.991 377.864 487.049 376.183 487.049 376.183C487.049 376.183 489.321 380.301 479.843 380.084C470.359 379.874 461.511 377.766 459.823 376.505C458.135 375.244 457.032 365.234 455.344 359.125C453.656 353.017 455.344 348.373 455.344 348.373Z" fill="#665070"/>
<path d="M484.52 410.383C484.52 410.383 480.31 408.512 478.11 408.636C475.909 408.761 471.515 414.876 470.234 417.195C468.953 419.513 470.589 432.945 470.589 435.343C470.589 437.74 469.683 439.283 472.98 440.564C476.277 441.845 480.855 440.275 481.775 440.334C482.688 440.393 485.44 437.904 483.975 437.543C482.51 437.182 476.284 438.916 475.003 438.298C473.722 437.681 472.802 433.891 472.802 433.891C472.802 433.891 471.889 425.569 472.251 422.929C472.612 420.288 474.083 417.451 474.083 417.451C474.083 417.451 476.645 411.218 478.116 411.316C479.574 411.402 484.52 410.383 484.52 410.383Z" fill="#665070"/>
<path d="M468.158 454.298L456.434 463.257C456.434 463.257 451.311 482.469 452.244 486.988C453.177 491.507 458.766 497.72 458.766 497.72L476.467 503.934C476.467 503.934 482.989 504.499 487.18 500.545C491.37 496.591 489.512 487.546 489.512 487.546C489.512 487.546 487.101 457.346 484.54 455.369C481.978 453.392 468.158 454.298 468.158 454.298Z" fill="#856792"/>
<path d="M424.671 456.472C424.671 456.472 414.378 453.083 413.892 455.908C413.406 458.732 411.935 473.425 412.914 477.379C413.892 481.333 414.871 483.592 414.871 483.592L412.914 488.111C412.914 488.111 412.973 505.451 416.126 506.101C419.285 506.758 426.635 499.409 426.635 499.409L429.577 489.806C429.577 489.806 430.556 461.556 429.085 459.862C427.613 458.167 424.671 456.472 424.671 456.472Z" fill="#856792"/>
<path d="M494.307 410.935C494.307 410.935 497.131 416.144 497.696 422.384C498.261 428.623 496.514 434.843 492.612 439.671C485.335 448.676 484.559 448.045 484.559 448.045C484.559 448.045 469.584 450.771 465.065 448.88L483.712 443.487C483.712 443.487 494.694 433.747 494.694 432.052C494.694 430.357 493.656 416.118 493.656 416.118L494.307 410.935Z" fill="#665070"/>
<path d="M403.338 332.242C403.338 332.242 404.369 336.019 403.508 338.258C402.648 340.492 399.64 340.065 397.236 340.065C394.832 340.065 392.684 339.809 391.482 338.777C390.28 337.746 388.54 332.038 389.42 330.705C390.3 329.372 393.196 329.845 396.809 330.364C400.421 330.882 403.338 332.242 403.338 332.242Z" fill="#856792"/>
<path d="M444.691 346.738C444.691 346.738 445.197 330.744 443.423 326.18C441.643 321.608 441.643 322.12 436.822 318.817C432.001 315.519 431.239 316.025 430.983 313.996C430.727 311.966 429.203 310.948 419.055 310.948C408.901 310.948 398.746 311.966 396.467 313.996C394.188 316.025 391.541 324.255 391.541 324.255C391.541 324.255 389.505 332.958 391.383 345.47C391.41 348.905 391.922 353.451 391.922 353.451L390.49 354.167C390.49 354.167 391.232 368.065 391.994 370.6C392.756 373.135 392.25 375.933 407.226 374.915C422.201 373.897 433.118 373.135 435.653 368.314C438.188 363.493 440.605 360.157 440.605 360.157C440.605 360.157 445.249 353.536 444.691 346.738Z" fill="#856792"/>
<path d="M412.71 335.073C412.71 335.073 414.74 339.473 416.093 340.826C417.446 342.18 427.6 342.521 427.6 342.521C427.6 342.521 422.188 343.198 418.799 343.198C415.416 343.198 414.063 341.845 414.063 341.845L412.71 335.073Z" fill="#665070"/>
<path d="M402.116 335.191C399.968 332.774 390.707 332.012 390.569 333.694C390.437 335.368 391.85 339.894 393.433 340.295C394.845 340.649 401.465 341.26 401.932 339.94C402.313 338.863 404.263 337.608 402.116 335.191Z" fill="#665070"/>
<path d="M432.165 328.505L443.929 328.544L443.863 330.403L436.06 332.268C436.06 332.268 434.195 336.938 433.525 338.107C430.845 342.751 414.471 339.395 414.471 339.395L413.131 336.176L432.165 328.505Z" fill="#665070"/>
<path d="M390.392 353.805C390.392 353.805 391.226 359.428 392.75 364.505C394.274 369.582 394.773 372.038 398.333 372.295C401.886 372.551 416.533 372.446 425.926 371.434C435.318 370.416 437.183 366.029 438.707 362.731C440.231 359.434 440.993 355.119 440.993 355.119C440.993 355.119 442.261 357.405 441.499 359.94C440.737 362.475 441.387 370.928 434.786 372.196C430.431 373.03 407.029 375.178 397.827 374.836C390.976 374.58 391.232 371.362 390.727 364.255C390.208 357.142 390.392 353.805 390.392 353.805Z" fill="#665070"/>
<path d="M411.948 332.439C411.948 332.439 412.796 337.346 415.167 338.528C417.538 339.71 424.979 339.546 428.533 339.375C432.086 339.204 431.581 339.546 431.915 336.669C432.257 333.792 432.934 327.362 431.239 326.515C429.544 325.667 415.837 329.733 411.948 332.439Z" fill="#34283A"/>
<path d="M402.09 333.969C402.09 333.969 402.851 336.761 402.214 338.409C401.577 340.058 399.364 339.743 397.584 339.743C395.81 339.743 394.221 339.552 393.334 338.79C392.447 338.029 391.16 333.818 391.81 332.833C392.461 331.848 394.602 332.196 397.262 332.577C399.935 332.951 402.09 333.969 402.09 333.969Z" fill="#34283A"/>
<path d="M445.111 326.515C445.111 326.515 444.888 329.562 442.313 329.562C439.738 329.562 432.894 327.448 428.001 328.971C423.108 330.495 415.318 335.001 412.487 335.001C409.656 335.001 404.31 335.067 402.503 335.067C400.697 335.067 399.672 333.037 395.291 332.781C390.91 332.525 388.697 333.142 388.29 332.558C387.515 329.51 387.823 323.901 390.142 321.871C392.461 319.842 387.068 310.876 403.534 308.925C433.518 305.372 432.993 310.705 434.536 312.222C436.08 313.746 439.2 313.641 441.052 314.679C445.282 317.037 445.111 322.456 445.111 326.515Z" fill="#856792"/>
<path d="M392.447 330.272C386.004 329.733 387.823 323.894 390.142 321.864C392.46 319.835 387.068 310.869 403.534 308.918C433.518 305.365 432.992 310.698 434.536 312.216C435.547 313.214 425.57 317.378 420.027 321.017C414.483 324.656 412.979 322.022 411.363 323.093C409.754 324.163 401.367 321.536 402.109 321.674C402.115 321.68 395.239 330.501 392.447 330.272Z" fill="#665070"/>
<path d="M392.421 343.539L392.927 353.103L390.444 353.818L390.536 355.441C390.536 355.441 417.603 353.694 428.264 356.229L426.234 353.694C426.234 353.694 409.932 351.408 395.377 352.597L393.938 350.311L392.421 343.539Z" fill="#665070"/>
<path d="M402.168 335.06C402.168 335.06 405.177 335.651 405.604 335.651C406.024 335.651 407.889 335.395 407.889 335.395L413.052 334.974L412.546 335.736L407.975 337.175L404.756 337.26L402.464 336.866L402.168 335.06Z" fill="#665070"/>
<path d="M444.828 340.958C444.828 340.958 444.894 350.974 443.902 353.26C442.208 357.418 440.769 359.08 440.769 359.08L441.111 355.756C441.111 355.756 443.39 353.26 443.732 352.019C444.067 350.771 444.828 340.958 444.828 340.958Z" fill="#665070"/>
<path d="M393.669 315.007C393.669 315.007 396.717 320.59 399.003 321.608C401.288 322.626 407.127 321.102 407.127 321.102C407.127 321.102 399.259 325.161 397.735 324.15C396.211 323.132 393.669 315.007 393.669 315.007Z" fill="#856792"/>
<path d="M352.657 401.03C352.657 401.03 357.531 398.777 363.561 396.722C369.59 394.666 372.224 394.298 372.224 394.298C372.224 394.298 368.644 391.507 362.175 394.469C358.011 396.374 355.521 396.833 352.657 401.03Z" fill="#856792"/>
<path d="M355.508 419.185L356.073 434.725L362.004 447.435C362.004 447.435 352.684 438.114 352.684 435.572C352.684 433.031 355.508 419.185 355.508 419.185Z" fill="#665070"/>
<path d="M425.058 414.213L431.088 410.778L443.147 412.249L447.942 415.277L449.341 415.342L440.021 409.451L427.961 407.979L421.932 411.415L422.273 416.584L425.571 416.117L425.058 414.213Z" fill="#665070"/>
<path d="M421.242 415.743L415.528 415.152C415.186 415.119 414.871 415.323 414.76 415.645L412.375 422.705C412.264 423.04 412.402 423.402 412.71 423.579L415.003 424.873C415.502 425.155 415.502 425.871 415.003 426.147L413.847 426.791C413.604 426.929 413.459 427.191 413.472 427.474L414.51 445.274C414.517 445.405 414.556 445.53 414.628 445.635L420.099 453.884C420.218 454.062 420.402 454.18 420.612 454.206L432.172 455.75C432.297 455.769 432.428 455.75 432.546 455.704L439.581 452.814C440.316 452.512 440.113 451.428 439.318 451.408L422.457 451.008C422.162 451.001 421.899 450.817 421.794 450.541L419.41 444.466C419.338 444.275 419.187 444.124 418.996 444.052L416.053 442.902C415.764 442.791 415.574 442.502 415.587 442.193L415.725 438.948C415.738 438.719 415.856 438.502 416.047 438.377L416.48 437.431C416.894 437.149 416.907 436.551 416.513 436.249L415.659 434.843C415.489 434.712 415.384 434.508 415.377 434.292L415.226 430.351C415.219 430.167 415.285 429.983 415.403 429.845L417.715 427.165C417.965 426.876 417.952 426.449 417.682 426.18L414.799 423.218C414.576 422.988 414.53 422.633 414.681 422.351L416.789 418.541C416.888 418.364 417.058 418.232 417.255 418.186L421.341 417.188C422.142 416.984 422.057 415.828 421.242 415.743Z" fill="#665070"/>
<path d="M338.037 457.136C341.531 455.132 353.912 455.152 356.887 457.136C359.863 459.119 354.864 474.968 354.864 474.968C354.864 474.968 366.615 494.798 363.639 497.773C360.664 500.748 342.805 493.806 339.331 490.331C335.856 486.857 332.808 469.326 334.069 465.07C335.245 461.103 334.542 459.139 338.037 457.136Z" fill="#856792"/>
<path d="M361.156 452.518L369.629 458.738L387.521 458.548L369.629 454.778L361.156 452.518Z" fill="#856792"/>
<path d="M482.293 407.231L456.927 411.96L449.302 416.465L456.389 409.273L473.026 404.492L482.293 407.231Z" fill="#665070"/>
<path d="M465.794 375.408L458.95 385.3C458.95 385.3 458.188 405.838 463.515 408.124C463.515 408.124 467.318 398.994 468.08 394.429C468.842 389.864 468.842 388.853 470.109 386.567C471.377 384.288 473.407 377.694 473.407 377.694L465.794 375.408Z" fill="#665070"/>
<path d="M408.769 391.868C408.769 391.868 407.035 403.303 407.383 408.15C407.731 412.998 414.661 418.889 414.661 418.889C414.661 418.889 410.851 413.346 410.851 407.113C410.851 400.879 408.769 391.868 408.769 391.868Z" fill="#665070"/>
<path d="M407.212 374.915C407.212 374.915 415.173 383.73 421.413 383.73C427.653 383.73 437.006 371.776 437.006 371.776L407.212 374.915Z" fill="#665070"/>
<path d="M437.006 453.103C437.006 453.103 450.517 447.907 451.554 446.87C452.592 445.832 451.554 435.434 451.554 435.434C451.554 435.434 457.531 445.306 454.155 448.945C450.779 452.584 437.006 453.103 437.006 453.103Z" fill="#665070"/>
<path d="M495.035 380.781C495.035 380.781 497.111 386.672 498.155 396.025C499.193 405.379 492.96 416.814 492.96 416.814C492.96 416.814 501.965 412.308 501.275 399.145C500.579 385.976 495.035 380.781 495.035 380.781Z" fill="#665070"/>
<path d="M377.761 438.554C377.498 440.893 383.134 445.917 383.134 445.917L381.4 439.205L382.05 432.971C382.05 432.965 378.024 436.21 377.761 438.554Z" fill="#665070"/>
<path d="M359.574 444.919C359.574 444.919 363.035 448.341 366.155 449.727C369.275 451.113 382.786 452.151 382.786 452.151C384.106 452.499 373.019 453.09 365.465 451.113C364.08 450.751 363.035 449.766 359.574 444.919Z" fill="#665070"/>
<path d="M364.769 369.175C364.769 369.175 369.905 366.199 372.907 366.088C375.902 365.976 376.336 368.262 376.336 368.262C376.336 368.262 373.478 367.224 371.272 367.48C367.725 367.901 364.769 369.175 364.769 369.175Z" fill="#856792"/>
<path d="M386.595 408.774C386.595 408.774 380.631 406.022 376.966 406.022C373.301 406.022 367.107 411.526 367.107 411.526C367.107 411.526 376.966 409.004 379.028 409.234C381.091 409.464 386.595 408.774 386.595 408.774Z" fill="#665070"/>
<path d="M406.602 416.466C406.602 415.428 402.707 411.96 399.587 411.96C396.467 411.96 395.909 412.177 393.525 412.998C391.016 413.865 389.367 415.073 388.677 416.117C388.677 416.117 388.677 411.27 394.221 410.574C399.764 409.884 399.298 409.293 401.321 409.884C403.397 410.489 406.602 416.466 406.602 416.466Z" fill="#665070"/>
<path d="M376.46 409.451C376.46 409.451 386.595 409.714 390.234 413.09C390.234 413.09 393.912 410.633 390.234 409.451C382.956 407.113 376.46 409.451 376.46 409.451Z" fill="#665070"/>
<path d="M61.2803 488.86L62.2393 479.244L29.5429 456.164L10.3114 464.814L0.695557 479.244L18.0027 492.702L61.2803 488.86Z" fill="#665070"/>
<path d="M18.0027 492.702L34.3508 490.784L20.5708 479.881L29.5429 456.164L10.3114 464.814L11.2703 473.471L0.695557 479.244L18.0027 492.702Z" fill="#4B3355"/>
<path d="M473.479 510.633L463.593 494.607L452.375 498.876L447.436 511.29L453.722 512.4L462.884 514.732L473.479 510.633Z" fill="#4B3355"/>
<path d="M463.331 494.739L464.402 502.351L460.126 506.627L459.725 511.435L462.799 514.371C469.479 513.839 473.485 510.627 473.485 510.627L474.017 502.876L463.331 494.739Z" fill="#665070"/>
<path d="M449.899 514.968L452.047 506.377L441.669 502.798L434.865 509.602L439.876 514.252L449.899 514.968Z" fill="#4B3355"/>
<path d="M449.899 514.968L444.172 507.093L438.805 509.602L439.876 514.253L449.899 514.968Z" fill="#665070"/>
<path d="M375.265 391.48C375.265 391.48 375.265 383.428 379.561 385.576C383.856 387.723 381.709 393.628 381.709 393.628C381.709 393.628 386.543 390.41 387.613 394.699C388.684 398.994 384.395 397.385 384.395 397.385L375.265 391.48Z" fill="#33A86D"/>
<path d="M365.065 395.237C365.065 395.237 362.378 390.403 366.674 390.942C370.969 391.48 367.751 395.776 365.065 395.237Z" fill="#33A86D"/>
<path d="M376.342 398.456C376.342 398.456 369.899 390.403 368.828 396.308C367.751 402.219 373.656 403.829 376.342 398.456Z" fill="#288453"/>
<path d="M375.803 404.899C375.803 404.899 374.733 392.012 379.56 394.699C384.395 397.385 381.176 406.515 375.803 404.899Z" fill="#288453"/>
<path d="M373.117 410.811C373.117 410.811 361.308 415.106 369.899 416.177C378.49 417.254 373.117 410.811 373.117 410.811Z" fill="#288453"/>
<path d="M334.569 496.781C334.569 496.781 332.329 488.88 335.285 489.182C338.24 489.484 336.835 495.546 336.835 495.546C336.835 495.546 342.234 486.279 343.383 492.715C344.533 499.152 342.884 501.523 342.884 501.523C342.884 501.523 346.516 496.308 348.23 498.909C349.938 501.51 347.646 503.33 347.646 503.33C347.646 503.33 343.895 507.159 341.051 505.175C338.207 503.192 338.207 503.192 338.207 503.192C338.207 503.192 335.751 505.707 330.72 500.794C325.695 495.875 326.411 488.275 334.569 496.781Z" fill="#33A86D"/>
<path d="M129.891 495.106C129.891 495.106 128.282 484.367 133.648 485.977C139.015 487.586 136.335 491.881 136.335 491.881C136.335 491.881 142.778 490.272 140.092 496.177C137.405 502.082 134.726 502.082 134.726 502.082C134.726 502.082 127.212 506.377 124.525 496.716C121.839 487.054 129.891 495.106 129.891 495.106Z" fill="#33A86D"/>
<path d="M106.272 495.106C106.272 495.106 103.054 488.124 106.272 487.054C109.491 485.983 109.491 491.349 109.491 491.349C109.491 491.349 113.248 484.367 114.325 489.74C115.395 495.106 113.248 502.082 106.272 495.106Z" fill="#33A86D"/>
<path d="M107.881 476.315C107.881 476.315 107.881 482.758 111.1 480.61C114.325 478.463 115.934 469.871 107.881 476.315Z" fill="#33A86D"/>
<path d="M91.7697 477.385C91.7697 477.385 90.1605 484.367 93.3789 483.829C96.5973 483.29 97.6745 482.758 96.5973 479.533C95.5333 476.315 91.7697 477.385 91.7697 477.385Z" fill="#33A86D"/>
<path d="M88.5515 469.333C88.5515 469.333 90.1607 475.776 93.3857 472.019C96.6041 468.256 92.3085 465.037 88.5515 469.333Z" fill="#33A86D"/>
<path d="M97.1426 472.551C97.1426 472.551 99.2904 477.385 101.438 476.847C103.586 476.308 104.125 466.646 97.1426 472.551Z" fill="#33A86D"/>
<path d="M92.8469 465.576C92.8469 465.576 93.3855 474.167 98.2131 468.794C103.041 463.422 97.6811 461.812 92.8469 465.576Z" fill="#33A86D"/>
<path d="M92.3085 458.594C92.3085 458.594 91.7699 465.037 95.5269 461.28C99.2904 457.517 96.6041 452.15 92.3085 458.594Z" fill="#33A86D"/>
<path d="M478.891 417.786C478.891 417.786 479.699 407.316 486.142 411.343C492.585 415.369 482.116 421.011 478.891 417.786Z" fill="#33A86D"/>
<path d="M481.308 421.812C481.308 421.812 469.853 429.149 482.74 425.214C495.626 421.28 493.84 419.848 481.308 421.812Z" fill="#33A86D"/>
<path d="M483.817 428.439C483.817 428.439 485.249 440.249 488.112 433.451C490.976 426.646 489.899 427.362 483.817 428.439Z" fill="#33A86D"/>
<path d="M481.669 428.794C481.669 428.794 471.292 430.942 479.883 432.013C488.467 433.09 481.669 428.794 481.669 428.794Z" fill="#33A86D"/>
<path d="M482.74 445.615C482.74 445.615 491.331 440.604 484.172 440.604C477.012 440.604 474.149 445.615 482.74 445.615Z" fill="#33A86D"/>
<path d="M491.062 398.64C491.062 398.64 489.63 407.231 496.073 402.574C502.516 397.924 498.582 396.131 491.062 398.64Z" fill="#33A86D"/>
<path d="M502.878 387.185C502.878 387.185 493.216 390.764 499.659 391.48C506.096 392.196 505.025 387.539 502.878 387.185Z" fill="#33A86D"/>
<path d="M496.789 378.594C496.789 378.594 495.719 387.185 500.724 382.889C505.742 378.594 503.233 378.594 496.789 378.594Z" fill="#33A86D"/>
<path d="M494.287 382.889C494.287 382.889 488.205 382.173 493.216 384.321C498.221 386.469 494.287 382.889 494.287 382.889Z" fill="#33A86D"/>
<path d="M493.925 373.937C493.925 373.937 503.949 378.948 500.008 373.937C496.073 368.925 488.198 368.571 493.925 373.937Z" fill="#33A86D"/>
<path d="M498.937 493.491C498.937 493.491 497.505 500.289 502.155 498.502C506.806 496.716 505.374 493.136 503.587 492.775C501.801 492.414 498.937 493.491 498.937 493.491Z" fill="#33A86D"/>
<path d="M498.937 488.84C498.937 488.84 503.587 477.747 502.516 485.261C501.446 492.775 498.937 488.84 498.937 488.84Z" fill="#33A86D"/>
<path d="M496.789 491.349C496.789 491.349 485.334 477.392 490.707 478.824C496.073 480.256 495.718 484.551 495.718 484.551C495.718 484.551 496.789 469.517 498.937 475.244C501.085 480.972 496.789 491.349 496.789 491.349Z" fill="#33A86D"/>
<path d="M506.103 483.014C506.103 483.014 513.906 477.412 512.789 482.154C511.673 486.896 504.986 484.742 506.103 483.014Z" fill="#33A86D"/>
<path d="M511.824 495.638C511.824 495.638 511.469 486.331 508.605 486.331C505.742 486.331 508.605 497.07 511.824 495.638Z" fill="#33A86D"/>
<path d="M515.049 494.568C515.049 494.568 510.398 476.315 516.119 479.533C521.847 482.758 519.344 497.786 515.049 494.568Z" fill="#33A86D"/>
<path d="M502.516 477.385C502.516 477.385 503.232 468.078 505.019 474.167C506.812 480.249 503.948 480.965 502.516 477.385Z" fill="#33A86D"/>
<path d="M518.628 492.775C518.628 492.775 520.06 481.681 522.924 482.397C525.787 483.113 523.994 487.408 523.994 487.408C523.994 487.408 527.213 477.031 530.076 479.894C532.94 482.758 527.929 487.054 527.929 487.054C527.929 487.054 536.159 482.758 533.656 486.699C531.154 490.633 525.426 489.201 525.426 489.201C525.426 489.201 527.574 495.999 518.628 492.775Z" fill="#33A86D"/>
<path d="M488.559 505.661C488.559 505.661 478.181 497.431 482.832 496.354C487.482 495.284 486.411 498.857 486.411 498.857C486.411 498.857 491.778 495.638 491.423 497.786C491.068 499.934 492.493 500.289 492.493 500.289C492.493 500.289 500.73 507.454 488.559 505.661Z" fill="#33A86D"/>
<path d="M367.212 491.349C367.212 491.349 367.212 484.19 368.999 485.622C370.786 487.054 370.431 490.633 370.431 490.633C370.431 490.633 377.229 486.338 376.513 489.918C375.797 493.497 372.217 493.852 372.217 493.852C372.217 493.852 372.217 499.934 370.07 498.147C367.922 496.361 367.212 491.349 367.212 491.349Z" fill="#33A86D"/>
<path d="M369.36 475.954C369.36 475.954 375.803 478.101 372.94 480.249C370.076 482.397 369.36 475.954 369.36 475.954Z" fill="#33A86D"/>
<path d="M374.372 483.474C374.372 483.474 376.158 491.349 379.738 485.622C383.324 479.894 382.963 481.681 374.372 483.474Z" fill="#33A86D"/>
<path d="M345.734 446.6C345.734 446.6 341.084 438.725 346.45 440.518C351.817 442.311 347.882 445.169 347.882 445.169C347.882 445.169 355.757 444.098 353.61 447.671C351.462 451.251 346.812 449.103 346.812 449.103L345.734 446.6Z" fill="#33A86D"/>
<path d="M343.587 447.678C343.587 447.678 344.303 442.311 341.439 441.234C338.575 440.157 336.427 449.464 343.587 447.678Z" fill="#33A86D"/>
<path d="M345.734 436.223C345.734 436.223 340.368 429.063 343.948 429.779C347.527 430.495 348.243 432.282 348.243 432.282C348.243 432.282 353.255 431.927 351.107 436.932C348.959 441.937 345.734 436.223 345.734 436.223Z" fill="#33A86D"/>
<path d="M343.232 422.975C343.232 422.975 347.882 428.341 350.03 424.406C352.178 420.472 343.232 422.975 343.232 422.975Z" fill="#33A86D"/>
<path d="M358.267 425.123C358.267 425.123 362.917 420.827 360.769 420.827C358.621 420.827 358.621 420.827 357.551 420.827C356.473 420.827 355.757 424.768 358.267 425.123Z" fill="#33A86D"/>
<path d="M351.823 417.609C351.823 417.609 348.605 423.336 353.61 420.472C358.615 417.609 359.337 416.177 351.823 417.609Z" fill="#33A86D"/>
<path d="M352.624 397.924C352.624 397.924 351.554 391.842 355.127 393.989C358.707 396.137 355.843 398.64 355.843 398.64C355.843 398.64 363.002 397.208 360.138 401.503C357.275 405.799 354.772 403.29 354.772 403.29L352.624 397.924Z" fill="#33A86D"/>
<path d="M349.406 391.119C349.406 391.119 338.312 390.048 342.247 393.622C346.188 397.208 352.986 392.551 349.406 391.119Z" fill="#33A86D"/>
<path d="M348.335 396.847C348.335 396.847 342.608 401.497 347.619 400.065C352.624 398.64 350.122 396.492 348.335 396.847Z" fill="#33A86D"/>
<path d="M345.11 405.083C345.11 405.083 354.417 403.651 349.045 402.581C343.672 401.51 342.247 404.006 345.11 405.083Z" fill="#33A86D"/>
<path d="M351.193 412.597C351.193 412.597 354.411 408.302 350.477 408.302C346.542 408.302 346.542 411.881 351.193 412.597Z" fill="#33A86D"/>
<path d="M442.385 467.362C442.385 467.362 435.226 472.374 440.599 470.942C445.965 469.51 442.385 467.362 442.385 467.362Z" fill="#33A86D"/>
<path d="M443.817 472.735C442.818 473.556 447.396 479.179 448.467 473.806C449.544 468.44 449.899 467.724 443.817 472.735Z" fill="#33A86D"/>
<path d="M439.16 477.385C439.16 477.385 449.183 484.184 445.242 479.533C441.308 474.883 437.374 476.315 439.16 477.385Z" fill="#33A86D"/>
<path d="M440.592 483.113C440.592 483.113 445.242 490.627 445.603 486.693C445.965 482.758 446.68 482.758 440.592 483.113Z" fill="#33A86D"/>
<path d="M438.805 488.84C438.805 488.84 451.692 492.059 443.456 492.42C435.219 492.781 432.362 489.202 438.805 488.84Z" fill="#33A86D"/>
<path d="M453.84 455.553C453.84 455.553 450.26 460.564 455.272 458.417C460.283 456.269 464.934 453.044 453.84 455.553Z" fill="#33A86D"/>
<path d="M452.408 462.712C452.408 462.712 458.49 463.067 455.627 461.642C452.763 460.203 449.183 459.848 452.408 462.712Z" fill="#33A86D"/>
<path d="M452.408 466.646C452.408 466.646 456.342 470.942 458.49 466.292C460.638 461.635 449.544 464.86 452.408 466.646Z" fill="#33A86D"/>
<path d="M403.699 249.004C403.699 249.004 398.444 237.91 403.699 239.079C408.953 240.248 405.452 244.334 405.452 244.334C405.452 244.334 413.63 240.248 412.461 246.087C411.291 251.927 408.96 253.68 408.96 253.68C408.96 253.68 415.968 247.841 415.383 255.434C414.799 263.027 408.96 257.772 408.96 257.772C408.96 257.772 405.459 263.611 401.367 258.357C397.275 253.102 401.367 254.856 401.367 254.856C401.367 254.856 389.098 245.503 403.699 249.004Z" fill="#33A86D"/>
<path d="M391.915 311.296C389.051 312.367 385.472 323.106 395.941 316.663C406.411 310.226 394.779 310.226 391.915 311.296Z" fill="#33A86D"/>
<path d="M396.546 304.005C399.199 304.005 407.764 303.835 399.501 308.485C391.239 313.135 393.892 304.005 396.546 304.005Z" fill="#33A86D"/>
<path d="M399.015 323.25C399.015 323.25 403.436 318.088 396.802 320.433C390.174 322.784 391.83 326.541 399.015 323.25Z" fill="#33A86D"/>
<path d="M401.176 327.585C397.038 329.076 397.34 333.621 403.37 330.272C409.393 326.915 405.314 326.094 401.176 327.585Z" fill="#33A86D"/>
<path d="M404.585 316.222C401.965 316.669 403.837 323.001 410.306 319.533C413.643 317.74 407.206 315.769 404.585 316.222Z" fill="#33A86D"/>
<path d="M388.336 348.524C388.336 348.524 390.483 344.59 386.549 345.306C382.615 346.022 384.763 348.17 384.763 348.17C384.763 348.17 378.68 340.656 376.171 343.874C373.669 347.093 380.467 349.602 380.467 349.602C380.467 349.602 370.444 347.454 368.296 351.033C366.148 354.613 373.308 351.749 373.308 351.749C373.308 351.749 364.716 357.116 367.226 358.547C369.728 359.979 373.669 357.116 373.669 357.116C373.669 357.116 375.817 362.127 377.249 357.47C378.68 352.82 378.68 352.82 378.68 352.82C378.68 352.82 384.763 356.754 384.408 352.82C384.053 348.886 384.408 349.956 384.408 349.956C384.408 349.956 389.406 353.536 388.336 348.524Z" fill="#33A86D"/>
<path d="M441.308 251.342C441.308 251.342 433.255 247.046 436.474 255.099C439.692 263.152 443.994 254.56 441.308 251.342Z" fill="#288453"/>
<path d="M440.769 245.969C440.769 245.969 450.97 237.917 446.674 244.36C442.378 250.803 440.769 245.969 440.769 245.969Z" fill="#288453"/>
<path d="M433.255 237.917C433.255 237.917 429.498 243.822 435.942 242.751C442.385 241.68 433.255 237.917 433.255 237.917Z" fill="#288453"/>
<path d="M435.403 230.941C435.403 230.941 446.681 238.994 439.16 237.385C431.646 235.769 435.403 230.941 435.403 230.941Z" fill="#288453"/>
<path d="M445.603 253.49C445.603 253.49 437.012 260.472 443.456 259.933C449.899 259.395 445.603 253.49 445.603 253.49Z" fill="#288453"/>
<path d="M449.36 261.542C449.36 261.542 459.561 263.151 452.579 265.299C445.597 267.447 448.828 260.472 449.36 261.542Z" fill="#288453"/>
<path d="M89.4446 370.482C89.4446 370.482 102.87 361.891 99.1063 368.873C95.3494 375.855 89.4446 370.482 89.4446 370.482Z" fill="#33A86D"/>
<path d="M91.0538 376.925C91.0538 376.925 88.3674 386.055 94.2722 381.759C100.184 377.464 91.0538 376.925 91.0538 376.925Z" fill="#33A86D"/>
<path d="M86.2196 374.777C86.2196 374.777 79.2376 360.282 74.942 367.795C70.6464 375.309 79.2376 370.482 79.2376 370.482C79.2376 370.482 71.7236 377.996 77.0898 376.925C82.4626 375.855 86.2196 374.777 86.2196 374.777Z" fill="#33A86D"/>
<path d="M84.0719 362.429C84.0719 362.429 80.3149 372.091 88.3675 365.116C96.4201 358.14 86.2197 362.968 86.2197 362.968L84.0719 362.429Z" fill="#33A86D"/>
<path d="M197.543 209.463C197.543 209.463 205.057 203.02 204.525 208.925C203.987 214.83 197.543 209.463 197.543 209.463Z" fill="#33A86D"/>
<path d="M199.159 214.829C199.159 214.829 204.525 222.343 207.212 216.977C209.898 211.611 199.159 214.829 199.159 214.829Z" fill="#33A86D"/>
<path d="M212.046 220.202C212.046 220.202 202.384 232.012 212.046 226.646C221.708 221.28 221.708 218.587 212.046 220.202Z" fill="#33A86D"/>
<path d="M200.768 222.35C200.768 222.35 186.272 224.498 195.402 226.646C204.532 228.793 208.282 228.793 200.768 222.35Z" fill="#33A86D"/>
<path d="M210.969 236.307C210.969 236.307 223.317 232.55 218.483 231.473C213.655 230.403 207.212 236.307 210.969 236.307Z" fill="#33A86D"/>
<path d="M211.507 239.532C205.603 237.923 197.011 242.751 212.578 244.367C228.151 245.969 217.412 241.142 211.507 239.532Z" fill="#33A86D"/>
<path d="M493.096 166.058C489.878 157.828 489.162 147.444 495.599 135.273C495.599 135.273 498.469 141.289 501.996 140.954C505.53 140.619 508.433 135.989 508.611 129.027C508.788 121.94 507.106 118.859 507.106 118.859L513.149 126.662C513.149 126.662 513.99 120.225 513.523 115.089C513.005 109.394 509.918 103.93 509.918 103.93C509.918 103.93 525.95 108.738 529.629 121.611C532.433 131.417 531.632 137.657 531.632 137.657L536.768 132.055C536.768 132.055 543.212 154.248 537.813 165.992C533.34 175.713 524.886 181.198 516.368 181.808C506.568 182.505 496.321 174.288 493.096 166.058Z" fill="#FF6600"/>
<path d="M517.622 171.424C517.622 171.424 509.76 170.281 505.753 162.439C501.635 154.386 507.428 152.14 507.428 152.14L511.179 158.537L518.161 139.746C518.161 139.746 522.456 144.935 523.35 147.26C524.243 149.585 530.929 166.997 517.622 171.424Z" fill="#FF0D01"/>
<path d="M522.988 101.086C522.988 101.086 522.45 97.3286 524.059 97.3286C525.675 97.3286 527.284 100.554 522.988 101.086Z" fill="#FF0D01"/>
<path d="M499.901 112.902C499.901 112.902 497.215 105.388 501.51 101.624C501.51 101.624 491.849 108.068 499.901 112.902Z" fill="#FF6600"/>
<path d="M517.13 84.8031C517.261 85.9394 515.757 86.4583 515.179 85.473C513.891 83.2661 512.499 80.3696 514.929 81.762C516.453 82.629 517.011 83.7588 517.13 84.8031Z" fill="#FF6600"/>
<path d="M150.174 186.77C150.174 186.77 134.692 190.902 124.709 172.918C118.16 162.304 122.476 143.88 122.476 143.88C122.476 143.88 129.175 143.433 133.648 148.346C130.968 133.601 138.561 126.455 138.561 126.455L142.581 128.241C142.581 128.241 145.188 125.22 150.876 115.558C150.876 115.558 170.607 127.781 167.763 143.079C164.919 158.376 165.819 153.253 165.819 153.253L176.991 147C176.978 147.006 186.193 185.161 150.174 186.77Z" fill="#FF6600"/>
<path d="M157.543 176.721C157.543 176.721 150.174 182.75 144.138 177.391C138.108 172.031 139.448 163.985 139.448 163.985L142.128 166.665C142.128 166.665 141.458 161.305 146.147 153.929C150.837 146.56 150.837 146.56 150.837 146.56L153.517 156.609L157.537 153.259C157.543 153.259 168.269 171.355 157.543 176.721Z" fill="#FF0D01"/>
<path d="M122.377 123.019C122.377 123.019 122.023 129.463 124.525 131.611C127.028 133.758 123.093 125.167 126.312 120.156L122.377 123.019Z" fill="#FF0D01"/>
<path d="M142.062 106.908C142.062 106.908 138.128 111.919 140.63 113.351C143.133 114.783 142.062 106.908 142.062 106.908Z" fill="#FF6600"/>
<path d="M162.108 108.701C162.108 108.701 161.753 114.067 163.895 112.635C166.049 111.203 164.617 104.76 162.108 108.701Z" fill="#FF0D01"/>
<path d="M150.299 90.0867C150.299 90.0867 153.517 90.8026 153.162 94.021C152.808 97.2394 150.299 90.0867 150.299 90.0867Z" fill="#FF6600"/>
<path d="M169.491 470.587C169.313 471.842 182.693 478.462 191.284 478.101C199.875 477.74 215.757 478.298 217.314 476.558C218.811 474.883 213.655 473.536 213.655 473.536C213.655 473.536 201.504 469.379 190.568 467.316C176.335 464.636 169.668 469.333 169.491 470.587Z" fill="#C94039"/>
<path d="M209.09 498.101C209.09 501.011 208.683 528.578 208.105 533.694C207.717 537.11 203.402 539.277 202.988 534.634C202.391 527.98 200.381 517.918 200.085 515.185C199.212 506.995 201.346 499.067 201.346 499.067C201.346 499.067 209.09 496.755 209.09 498.101Z" fill="#F5894E"/>
<path d="M206.056 507.678C205.182 508.702 207.829 528.315 207.251 533.438C206.864 536.854 203.402 539.277 202.989 534.634C202.391 527.98 200.381 517.918 200.085 515.185C199.212 506.995 200.795 499.093 200.795 499.093C200.795 499.093 206.93 506.653 206.056 507.678Z" fill="#CC6D3D"/>
<path d="M210.792 482.219C210.66 485.083 210.903 490.436 210.424 494.351C210.345 495.014 210.489 494.417 209.517 504.032L199.77 504.098L199.337 493.379C198.772 491.586 197.255 481.004 197.228 481.149C197.767 478.463 210.969 478.259 210.792 482.219Z" fill="#273252"/>
<path d="M205.688 534.121C208.906 535.908 209.412 536.203 212.111 537.681C215.008 539.264 204.315 539.632 203.54 537.55C202.758 535.474 202.929 532.584 205.688 534.121Z" fill="#CC6D3D"/>
<path d="M202.588 535.166C202.929 534.41 204.749 534.778 205.103 534.923C205.458 535.067 209.215 536.512 209.215 536.512C209.215 536.512 212.952 538.095 213.977 538.246C216.887 538.673 219.074 540.735 212.013 541.451C209.209 541.734 206.338 540.545 206.338 540.545L206.095 541.419L205.425 541.55C205.425 541.55 202.837 541.721 202.699 541.419C202.516 540.998 202.246 535.921 202.588 535.166Z" fill="#992C29"/>
<path d="M213.484 541.281C213.484 541.281 209.386 542.036 206.331 540.407C206.331 540.407 205.891 539.501 207.304 539.757C211.593 540.538 212.111 541.143 213.484 541.281Z" fill="#C94039"/>
<path d="M209.202 482.219C209.038 485.438 208.249 489.201 207.928 492.242C207.855 492.906 207.763 501.727 206.87 503.159C205.977 504.591 200.098 503.513 200.098 503.513L198.647 492.341C198.128 490.587 197.018 480.965 196.985 481.149C197.465 478.463 209.399 478.259 209.202 482.219Z" fill="#1D2538"/>
<path d="M194.772 466.916C194.772 466.916 196.604 479.415 197.517 482.633C198.43 485.852 210.161 489.911 210.608 485.353C211.054 480.794 212.177 467.454 209.741 463.159C207.304 458.863 194.772 459.934 194.772 466.916Z" fill="#273252"/>
<path d="M194.772 466.916C194.772 466.916 196.42 479.415 197.248 482.633C198.076 485.852 208.637 489.911 209.044 485.353C209.445 480.788 210.463 467.454 208.263 463.159C206.056 458.863 194.772 459.934 194.772 466.916Z" fill="#1D2538"/>
<path d="M181.504 488.177C181.504 488.177 180.473 494.837 178.325 501.687C176.847 506.403 176.473 508.124 176.48 518.075C176.48 520.354 175.783 528.394 175.836 529.97C175.928 532.709 175.882 534.647 177.287 534.384C179.494 533.963 180.171 533.064 182.686 522.128C186.049 507.513 189.642 488.302 189.642 488.302L181.504 488.177Z" fill="#F5894E"/>
<path d="M181.504 488.177C181.504 488.177 180.473 494.837 178.325 501.687C176.847 506.403 176.473 508.124 176.479 518.075C176.479 520.354 175.166 530.515 175.218 532.092C175.31 534.83 175.882 534.647 177.281 534.384C179.488 533.963 178.562 530.384 181.077 519.448C184.44 504.834 183.402 504.059 183.402 504.059L181.504 488.177Z" fill="#CC6D3D"/>
<path d="M195.921 465.274C195.921 465.274 192.801 483.559 190.516 487.75C187.475 493.326 181.504 492.302 180.979 488.742C180.151 483.08 179.547 472.827 180.053 467.283C180.598 461.326 189.314 456.42 195.921 465.274Z" fill="#273252"/>
<path d="M181.064 487.402C179.271 488.321 177.918 501.642 177.918 501.642L186.647 503.382C186.647 503.382 188.966 497.451 190.306 489.195C191.54 481.596 182.562 484.591 181.064 487.402Z" fill="#273252"/>
<path d="M193.077 464.683C193.077 464.683 192.716 473.72 190.942 479.842C190.45 481.55 189.051 487.802 188.552 488.715C185.511 494.292 181.497 492.295 180.972 488.729C180.144 483.067 179.54 472.814 180.046 467.27C180.598 461.326 186.47 455.829 193.077 464.683Z" fill="#1D2538"/>
<path d="M176.722 530.213C177.425 530.023 178.181 530.22 178.778 530.647C181.123 532.328 180.979 532.696 184.053 534.811C186.273 536.341 175.704 537.661 175.126 535.973C174.621 534.522 174.397 530.844 176.722 530.213Z" fill="#CC6D3D"/>
<path d="M174.47 532.906C174.956 531.809 174.529 529.294 177.681 531.054C182.102 533.523 183.803 534.023 185.058 534.515C186.312 535.008 186.989 535.317 187.941 535.474C190.765 535.927 190.056 536.341 186.838 537.773C184.361 538.877 179.304 537.471 179.304 537.471L179.113 538.016C178.982 538.397 178.627 538.647 178.227 538.647L175.475 538.463C175.475 538.463 174.864 538.246 174.713 537.865C174.502 537.333 173.984 534.003 174.47 532.906Z" fill="#992C29"/>
<path d="M181.064 487.402C179.271 488.321 177.918 501.642 177.918 501.642L185.609 503.12C185.609 503.12 187.343 497.096 188.683 488.847C189.918 481.247 182.562 484.591 181.064 487.402Z" fill="#1D2538"/>
<path d="M205.603 432.643L204.532 439.086C204.532 439.086 209.898 450.18 212.946 457.701C215.987 465.215 217.78 469.333 217.596 475.953C217.596 475.953 210.437 473.451 203.816 473.267C197.195 473.09 177.149 463.421 169.451 470.581C169.451 470.581 179.297 451.612 183.231 442.482C183.231 442.482 178.043 421.72 184.663 418.14C191.284 414.561 199.698 415.993 201.484 416.886C203.271 417.786 208.998 422.62 205.603 432.643Z" fill="#F7BC4B"/>
<path d="M201.038 432.643L199.967 439.087L205.333 458.055L194.864 462.62L205.872 463.159C205.872 463.159 199.08 465.766 190.299 466.916C182.594 467.927 173.044 467.238 169.451 470.588C169.451 470.588 179.297 451.619 183.231 442.489C183.231 442.489 178.043 421.727 184.663 418.147C191.284 414.568 199.698 416 201.484 416.893C203.271 417.786 204.44 422.62 201.038 432.643Z" fill="#CE9436"/>
<path d="M184.42 387.152C184.42 387.152 186.68 389.681 188.939 390.705C190.647 391.487 191.987 391.585 191.987 391.585L191.625 390.928L192.433 390.252C192.433 390.252 189.3 390.055 185.057 386.725L184.42 387.152Z" fill="#EE5D4F"/>
<path d="M184.19 386.85C184.19 386.85 185.451 389.996 187.218 391.736C188.551 393.05 189.78 393.608 189.78 393.608L189.661 392.866L190.647 392.505C190.647 392.505 187.77 391.244 184.926 386.666L184.19 386.85Z" fill="#EE5D4F"/>
<path d="M185.629 388.485C186.417 388.314 187.001 384.032 185.103 384.019C183.317 384.006 181.3 384.321 181.694 385.654C182.082 386.981 184.841 388.656 185.629 388.485Z" fill="#992C29"/>
<path d="M186.213 386.042C186.213 386.042 185.846 384.229 185.281 384.295C184.716 384.36 185.254 385.116 185.451 386.311C185.649 387.5 186.351 386.804 186.213 386.042Z" fill="#F7BC4B"/>
<path d="M184.932 387.631C184.932 387.631 184.775 386.797 185.964 385.937C187.152 385.076 188.065 384.597 188.86 385.043C189.655 385.49 190.016 387.605 189.616 388.689C189.215 389.773 186.463 389.076 185.76 388.702C185.064 388.328 184.932 387.631 184.932 387.631Z" fill="#992C29"/>
<path d="M189.353 386.738C189.353 386.738 189.681 388.426 188.933 388.735C187.823 389.195 188.401 385.943 188.44 385.431C188.486 384.925 189.504 385.51 189.353 386.738Z" fill="#F7BC4B"/>
<path d="M198.863 390.048C198.863 390.048 202.765 391.283 204.407 396.82C206.049 402.364 205.898 409.91 198.509 409.91C186.916 409.91 187.034 400.577 187.369 398.462C188.808 389.431 198.863 390.048 198.863 390.048Z" fill="#CC6D3D"/>
<path d="M198.24 389.871C198.24 389.871 202.141 391.106 203.783 396.643C205.425 402.186 205.274 409.733 197.885 409.733C186.292 409.733 186.411 400.4 186.746 398.285C188.184 389.254 198.24 389.871 198.24 389.871Z" fill="#F5894E"/>
<path d="M201.235 400.071C201.235 400.071 202.509 392.419 198.614 389.602C195.402 387.277 192.486 387.073 188.387 387.677C188.387 387.677 194.135 387.204 198.568 392.708C200.131 394.646 201.235 400.071 201.235 400.071Z" fill="#F7BC4B"/>
<path d="M195.133 388.794C195.133 388.794 188.959 385.575 183.323 390.134C177.688 394.698 177.327 397.201 178.404 399.887C179.474 402.574 179.474 402.574 179.474 402.574C179.474 402.574 175.179 403.382 175.179 405.792C175.179 408.203 175.152 413.93 183.231 414.383C188.827 414.699 189.629 412.682 189.629 412.682C189.629 412.682 200.499 416.17 204.171 411.52C206.91 408.052 207.277 402.482 201.642 400.873C201.642 400.873 200.768 389.602 195.133 388.794Z" fill="#273252"/>
<path d="M192.985 388.794C192.985 388.794 186.187 384.899 181.176 390.134C177.149 394.337 175.895 397.562 176.256 399.887C176.696 402.745 177.327 402.574 177.327 402.574C177.327 402.574 173.031 403.382 173.031 405.792C173.031 408.203 173.031 413.576 181.084 414.383C189.136 415.191 189.944 413.313 189.944 413.313C189.944 413.313 201.997 416.177 203.993 409.937C205.425 405.464 205.491 403.224 199.855 401.615C199.849 401.615 198.621 389.602 192.985 388.794Z" fill="#1D2538"/>
<path d="M191.238 388.505C191.238 388.505 193.208 382.239 195.711 383.316C198.213 384.387 193.924 389.582 193.924 389.582C193.924 389.582 197.681 385.464 199.829 387.079C201.977 388.689 199.829 392.63 195.711 392.807C191.593 392.978 191.238 388.505 191.238 388.505Z" fill="#273252"/>
<path d="M190.568 388.432C190.568 388.432 192.539 382.166 195.041 383.244C197.544 384.314 193.254 389.51 193.254 389.51C193.254 389.51 197.011 385.391 199.159 387.007C201.307 388.616 199.159 392.557 195.041 392.735C190.923 392.912 190.568 388.432 190.568 388.432Z" fill="#1D2538"/>
<path d="M202.798 398.482C202.798 398.482 201.451 394.672 200.026 395.368C198.601 396.065 198.752 399.979 201.898 401.536C205.038 403.099 202.798 398.482 202.798 398.482Z" fill="#CC6D3D"/>
<path d="M203.369 398.771C203.369 398.771 202.299 395.749 201.169 396.301C200.039 396.859 200.158 399.96 202.653 401.194C205.156 402.436 203.369 398.771 203.369 398.771Z" fill="#F5894E"/>
<path d="M225.379 461.096C225.714 461.438 226.542 462.659 226.943 463.421C227.067 463.651 227.455 464.111 227.415 464.597C227.317 465.838 227.074 466.6 226.108 466.508C225.872 465.97 225.55 464.229 224.887 463.96C224.191 463.677 223.626 459.323 225.379 461.096Z" fill="#CC6D3D"/>
<path d="M215.363 457.819C215.317 457.733 215.547 457.031 216.604 456.361C217.846 455.579 218.47 456.334 218.47 456.334L231.961 472.236L227.415 475.816L215.363 457.819Z" fill="#1D2538"/>
<path d="M212.828 451.369C211.14 452.446 210.943 454.738 212.335 456.4C213.655 457.976 215.915 458.364 217.419 457.352C218.91 456.347 219.212 454.278 218.063 452.643C216.848 450.922 214.49 450.305 212.828 451.369ZM216.092 455.842C215.468 456.164 214.47 455.894 213.846 455.224C213.209 454.535 213.209 453.7 213.866 453.372C214.516 453.044 215.54 453.352 216.145 454.049C216.742 454.719 216.71 455.52 216.092 455.842Z" fill="#1D2538"/>
<path d="M213.924 452.144C212.952 452.741 212.847 454.055 213.668 455.047C213.833 455.244 214.016 455.408 214.213 455.546C214.082 455.454 213.957 455.342 213.846 455.224C213.209 454.535 213.209 453.7 213.865 453.372C214.516 453.044 215.54 453.352 216.145 454.049C216.736 454.725 216.709 455.52 216.092 455.848C215.704 456.052 215.179 456.019 214.68 455.815C215.369 456.118 216.151 456.104 216.736 455.737C217.636 455.165 217.78 453.93 217.044 452.952C216.289 451.927 214.89 451.553 213.924 452.144Z" fill="#F7BC4B"/>
<path d="M214.312 455.612C214.332 455.625 214.345 455.638 214.365 455.645C214.345 455.632 214.332 455.625 214.312 455.612Z" fill="#F6BE4A"/>
<path d="M214.535 455.737C214.568 455.75 214.594 455.763 214.627 455.783C214.594 455.769 214.561 455.75 214.535 455.737Z" fill="#F6BE4A"/>
<path d="M215.993 457.063C215.967 457.09 215.934 457.109 215.895 457.116C215.599 457.162 215.317 457.162 215.061 457.116C214.969 457.096 214.91 456.998 214.936 456.899C214.962 456.794 215.054 456.728 215.153 456.748C215.369 456.788 215.612 456.794 215.869 456.748C215.967 456.735 216.053 456.801 216.059 456.906C216.059 456.965 216.033 457.024 215.993 457.063Z" fill="#3E4C6F"/>
<path d="M221.78 463.31C222.614 462.423 222.916 461.536 222.916 461.536L229.491 469.326C230.233 470.134 232.368 472.499 232.368 472.499C232.368 472.499 228.184 475.914 227.474 476.328C227.474 476.328 225.537 473.353 225.025 472.479L219.895 464.748C219.895 464.735 220.946 464.203 221.78 463.31Z" fill="#C94039"/>
<path d="M221.55 467.119L220.913 466.016C220.913 466.016 222.023 465.346 223.757 463.494C223.757 463.494 224.223 463.802 221.55 467.119Z" fill="#1D2538"/>
<path d="M222.864 461.477C222.864 461.477 220.703 463.737 219.494 464.164L218.739 462.85C218.739 462.85 221.688 461.234 222.194 460.689L222.864 461.477Z" fill="#C73F37"/>
<path d="M225.222 464.269L225.478 464.577C225.478 464.577 223.77 466.62 222.154 467.533L225.222 464.269Z" fill="#1D2538"/>
<path d="M222.713 468.998L223.356 469.957C223.356 469.957 225.734 468.282 226.66 465.957C226.66 465.957 224.335 468.775 222.713 468.998Z" fill="#1D2538"/>
<path d="M225.025 472.466L224.066 471.001C224.066 471.001 226.759 469.832 228.131 467.671L230.194 470.101C230.194 470.108 228.368 470.771 225.025 472.466Z" fill="#1D2538"/>
<path d="M226.194 474.305L226.686 475.119C226.686 475.119 229.353 474.311 230.772 471.783C230.772 471.789 226.995 474.587 226.194 474.305Z" fill="#1D2538"/>
<path d="M240.092 471.927C239.882 471.999 239.75 472.177 239.573 472.308L224.217 484.387C224.007 484.531 223.54 484.426 222.312 484.223C221.484 484.085 220.683 483.632 220.946 482.804C221.294 481.72 221.478 480.321 221.859 480.098L236.92 468.82C237.156 468.65 238.286 468.492 238.752 468.426C239.278 468.354 239.593 468.059 240.23 468.177C240.703 468.262 240.985 468.748 240.952 469.333L240.092 471.927Z" fill="#C94039"/>
<path d="M239.639 471.191C239.56 471.402 239.422 471.592 239.238 471.73L223.304 483.671C223.258 483.704 221.248 483.677 220.959 483.172C220.67 482.666 221.563 480.275 221.563 480.275C221.563 480.275 237.57 467.888 237.872 467.92C238.424 467.986 239.127 467.901 239.797 468.019C240.296 468.111 240.585 468.617 240.414 469.09L239.639 471.191Z" fill="#F5894E"/>
<path d="M239.639 471.192C239.56 471.402 239.422 471.592 239.238 471.73L235.534 471.625L221.563 480.269C221.563 480.269 237.57 467.881 237.872 467.914C238.555 467.888 239.127 467.894 239.796 468.013C240.296 468.105 240.585 468.61 240.414 469.083L239.639 471.192Z" fill="#FEED7F"/>
<path opacity="0.5" d="M255.337 501.99L252.204 497.885L241.366 496.21L244.355 500.289L255.337 501.99Z" fill="#FEED7F"/>
<path opacity="0.5" d="M251.232 496.728L249.964 495.205L239.126 493.53L240.25 495.027L251.232 496.728Z" fill="#FEED7F"/>
<path d="M237.327 473.425L236.348 473.287C236.013 473.234 235.947 473.254 235.888 473.595L235.665 474.666L237.327 473.425Z" fill="#C94039"/>
<path d="M273.281 523.867C273.281 523.867 236.939 477.844 236.44 477.128C235.941 476.412 235.415 475.736 235.415 475.736C235.074 475.46 234.726 475.624 233.478 476.662L228.335 480.688L264.801 530.482C264.979 530.731 272.335 532.682 272.335 532.682C272.512 532.61 272.847 532.748 273.018 532.032L273.662 524.859C273.642 524.347 273.432 524.064 273.281 523.867Z" fill="#F7BC4B"/>
<path d="M273.281 523.868C273.281 523.868 236.952 477.786 236.453 477.07C235.947 476.354 235.179 475.402 235.179 475.402C235.179 475.402 235.133 475.369 234.476 475.894L272.512 524.952C272.512 524.952 272.847 532.748 273.018 532.032L273.662 524.86C273.642 524.348 273.432 524.065 273.281 523.868Z" fill="#F5894E"/>
<path d="M255.698 501.871L257.215 503.638C257.353 503.75 257.123 503.973 256.802 504.039L254.614 504.486C254.417 504.525 254.286 504.459 254.319 504.341L255.219 501.924C255.271 501.733 255.554 501.76 255.698 501.871Z" fill="#F5894E"/>
<path d="M256.453 519.041L258.292 519.284L257.846 520.926L256.453 519.041Z" fill="#F5894E"/>
<path d="M259.678 521.464L262.181 521.333L260.742 523.08L259.678 521.464Z" fill="#F5894E"/>
<path d="M272.696 532.486L231.573 478.193" stroke="#F3E7D9" stroke-miterlimit="10"/>
<path d="M250.168 510.344L251.304 509.49L253.169 510.482L253.183 512.413L257.097 513.504L258.601 513.944" stroke="#F3E7D9" stroke-miterlimit="10"/>
<path d="M210.969 428.17C210.969 428.17 215.264 438.548 216.158 441.95C216.538 443.389 217.136 446.141 216.138 447.119C214.778 448.453 211.494 447.546 210.253 445.175C208.105 441.057 203.001 431.572 203.717 429.07C204.44 426.554 209.09 423.875 210.969 428.17Z" fill="#F5894E"/>
<path d="M208.013 430.403C208.013 430.403 211.77 438.456 213.248 442.082C214.036 444.013 212.401 449.287 210.253 445.169C208.105 441.05 203.001 431.566 203.717 429.064C204.44 426.554 206.134 426.108 208.013 430.403Z" fill="#CC6D3D"/>
<path d="M221.438 462.351C221.438 462.351 224.86 462.89 221.885 456.801C219.593 452.111 218.417 447.855 216.939 443.96C215.54 440.275 210.588 442.889 210.765 445.569C210.942 448.256 213.057 450.988 215.264 455.008C218.305 460.564 219.291 462.528 221.438 462.351Z" fill="#F5894E"/>
<path d="M221.439 462.351C221.439 462.351 224.348 463.402 221.373 457.32C219.081 452.63 215.849 446.206 213.655 442.62C211.107 438.456 209.36 440.873 209.537 443.559C209.714 446.246 213.058 450.995 215.264 455.014C218.306 460.564 219.291 462.528 221.439 462.351Z" fill="#CC6D3D"/>
<path d="M218.844 460.026C218.844 460.026 219.501 458.121 221.977 458.798C223.737 459.277 223.626 459.323 225.38 461.103C225.714 461.445 226.496 462.758 226.903 463.52C227.311 464.282 223.6 464.689 223.416 464.86C223.061 465.195 223.396 467.855 223.396 467.855L223.935 469.668C223.935 469.668 224.381 471.008 224.558 471.547C224.736 472.085 223.908 472.085 223.56 471.829C223.212 471.573 222.253 470.272 222.253 470.272C221.682 470.522 221.517 470.745 220.171 468.361C219.764 467.645 219.1 466.345 219.1 466.345C219.1 466.345 218.306 462.174 218.844 460.026Z" fill="#CC6D3D"/>
<path d="M203.186 415.823C203.186 415.823 205.603 415.468 207.751 419.757C209.899 424.053 211.422 428.887 211.422 428.887L204.171 432.105C204.171 432.105 202.47 431.297 200.591 422.976C198.936 415.645 203.186 415.823 203.186 415.823Z" fill="#C94039"/>
<path d="M204.525 416.085C204.525 416.085 204.19 422.351 204.591 423.29C204.992 424.229 208.151 430.272 208.151 430.272L204.171 432.104C204.171 432.104 202.469 431.297 200.591 422.975C199.763 419.31 200.236 416.709 201.753 415.993C203.054 415.388 204.525 416.085 204.525 416.085Z" fill="#992C29"/>
<path d="M205.379 421.615C205.379 421.615 204.782 425.333 206.056 427.29L207.074 428.308C207.074 428.301 205.235 422.337 205.379 421.615Z" fill="#992C29"/>
<path d="M198.259 414.206C195.455 414.206 180.276 415.369 177.589 419.664C173.195 426.692 169.983 434.699 166.226 437.654C162.469 440.61 145.018 447.316 138.305 446.515C131.593 445.714 127.836 444.367 123.271 450.272C118.706 456.177 109.044 467.454 107.166 468.256C107.166 468.256 119.428 470.581 122.916 468.971C126.404 467.362 132.046 467.717 140.637 470.942C149.228 474.16 152.184 471.75 152.184 471.75C152.184 471.75 159.698 466.916 165.34 460.742C170.975 454.567 182.522 454.39 187.711 450.541C192.9 446.692 195.731 444.695 198.542 437.03C200.217 432.452 203.455 424.387 203.823 421.904C204.342 418.416 204.105 415.658 203.468 415.283C202.154 414.521 200.407 414.206 198.259 414.206Z" fill="#1689CB"/>
<path d="M198.332 418.042C198.332 418.042 190.975 424.413 183.113 426.685C180.039 427.579 177.011 427.487 174.331 423.92C171.658 420.354 173.156 416.643 175.212 413.017C177.267 409.391 181.99 410.206 188.841 409.799C195.691 409.391 201.76 411.191 198.332 418.042Z" fill="#29ABE2"/>
<path d="M196.473 410.626C198.22 411.966 179.356 420.045 177.813 418.64C176.276 417.234 176.598 413.674 178.496 411.303C179.862 409.595 181.832 409.996 187.553 409.792C192.69 409.615 194.726 409.286 196.473 410.626Z" fill="#992C29"/>
</svg>
