<svg width="21" height="21" viewBox="0 0 21 21" fill="none" xmlns="http://www.w3.org/2000/svg">
<g clip-path="url(#clip0_201_25)">
<path d="M20.6592 17.645L16.7646 13.7505C16.5889 13.5747 16.3506 13.4771 16.1006 13.4771H15.4639C16.542 12.0981 17.1826 10.3638 17.1826 8.47705C17.1826 3.98877 13.5459 0.352051 9.05762 0.352051C4.56934 0.352051 0.932617 3.98877 0.932617 8.47705C0.932617 12.9653 4.56934 16.6021 9.05762 16.6021C10.9443 16.6021 12.6787 15.9614 14.0576 14.8833V15.52C14.0576 15.77 14.1553 16.0083 14.3311 16.1841L18.2256 20.0786C18.5928 20.4458 19.1865 20.4458 19.5498 20.0786L20.6553 18.9731C21.0225 18.606 21.0225 18.0122 20.6592 17.645ZM9.05762 13.4771C6.2959 13.4771 4.05762 11.2427 4.05762 8.47705C4.05762 5.71533 6.29199 3.47705 9.05762 3.47705C11.8193 3.47705 14.0576 5.71143 14.0576 8.47705C14.0576 11.2388 11.8232 13.4771 9.05762 13.4771Z" fill="white" fill-opacity="0.5"/>
</g>
<defs>
<clipPath id="clip0_201_25">
<rect width="20" height="20" fill="white" transform="translate(0.932617 0.352051)"/>
</clipPath>
</defs>
</svg>
